<?xml version="1.0" encoding="UTF-8" standalone="no"?>
<!-- Created with Inkscape (http://www.inkscape.org/) -->

<svg
   version="1.1"
   id="svg1"
   width="4000"
   height="4000"
   viewBox="0 0 4000 4000"
   sodipodi:docname="0883-vector-wikianswers-ninja-jumping-01.eps"
   xmlns:inkscape="http://www.inkscape.org/namespaces/inkscape"
   xmlns:sodipodi="http://sodipodi.sourceforge.net/DTD/sodipodi-0.dtd"
   xmlns="http://www.w3.org/2000/svg"
   xmlns:svg="http://www.w3.org/2000/svg">
  <defs
     id="defs1" />
  <sodipodi:namedview
     id="namedview1"
     pagecolor="#505050"
     bordercolor="#eeeeee"
     borderopacity="1"
     inkscape:showpageshadow="0"
     inkscape:pageopacity="0"
     inkscape:pagecheckerboard="0"
     inkscape:deskcolor="#505050">
    <inkscape:page
       x="0"
       y="0"
       inkscape:label="1"
       id="page1"
       width="4000"
       height="4000"
       margin="0"
       bleed="0" />
  </sodipodi:namedview>
  <g
     id="g1"
     inkscape:groupmode="layer"
     inkscape:label="1">
    <path
       id="path1"
       d="m 28655.9,11563.9 c -3.8,10.6 -8.6,19.5 -14.6,29 -4,5.5 -9.9,16.7 -20.4,34.2 -62.5,107.1 -145.5,245.3 -247.5,411.1 6.5,40 -1.3,81.1 -23.3,116.5 l -186.4,301.3 c 5.3,11.6 10.4,24 15.6,35.4 l -153.9,231.8 c -107.3,256.1 -233.2,503.5 -380.6,739.6 -109.2,185.9 -256.9,369.6 -396.6,521.8 -93.3,108.5 -221,208.1 -366.4,269.6 12.5,57.3 -5,118.1 -48.6,158.9 L 26559,14674 c -31,69.9 -62.2,120.6 -71.7,134.8 -29.6,45.7 -78.1,73.4 -129.7,76.5 -48.2,60.8 -96.3,121.5 -146.3,182.3 -2.5,16.9 -10.7,31.9 -22.3,44.8 l -63.4,62.2 c -49.3,61.1 -99.7,122.7 -150.5,184.9 -28.8,35.5 -58.7,71.4 -88.3,106.6 58.2,67 244.5,261.9 414,435 l 41.8,41.9 -25.9,53.4 c -217.3,449.6 -264.6,437.6 -324.4,421.7 -192.1,-50.5 -410.6,-173.1 -630.1,-329.9 -2077.6,2429.5 -4162.5,4719.1 -8044.9,7802.7 -14,11.6 -31.2,18.7 -49.2,21.7 l -725.6,116.8 c -46.4,7.7 -92.6,-17.2 -111.7,-60.3 -20.4,-42.7 -8.1,-94 28.1,-123.7 42.8,-36.6 4145.9,-3526.3 8108.7,-8440.6 -291.9,-286.5 -502.1,-526.9 -522.2,-550.3 l -52.6,-61.1 515,-480.8 558.5,464.8 c 13.4,-17.9 27.2,-34.6 40.6,-52.3 86.1,-111.7 173.1,-224.8 258.1,-338 13.5,-17.8 26.6,-34.8 39.9,-52.7 0.4,-0.7 1.2,-2.1 0.9,-3.4 -20.5,-20.7 -39.7,-42.4 -58.7,-64.4 83.9,-94.8 167.4,-189.8 250.6,-285.2 l -21.3,-10.5 c -12.7,3.3 -28.6,7.6 -44.1,10.5 -119.1,32 -285.7,12.6 -396,-55.2 -123.1,-71.3 -167.2,-121.9 -246.5,-185.4 -140.8,-120.8 -267.6,-242.7 -387.8,-362.4 -421.6,-422 -765.4,-827.9 -1021.9,-1113.3 -124.8,137.5 -252.8,271.9 -385.2,402.5 -172.7,170.2 -374.4,296.2 -557.4,447.3 256.8,514.7 396.6,1088 394.8,1663.5 3.2,974 -397.2,1943.1 -1088.9,2629.3 -686.1,691.1 -1655.3,1092.1 -2629.3,1088.8 -974.2,3.3 -1943.3,-397.2 -2629.4,-1088.8 -691.7,-686.2 -1092.1,-1655.3 -1088.8,-2629.3 -1.6,-470.5 91.5,-938.8 265.9,-1375.8 -369.6,205.3 -1072.3,564.9 -2101.5,934 -107.6,23.2 -174.9,90.9 -370.6,76.1 -170,-39.2 -248.9,-118.1 -293.5,-107.6 -135.8,35.3 -427.5,131.2 -649.7,195.9 -481.7,143.8 -1003.4,293.3 -1561.6,444.4 -279.6,75.6 -567.5,151.7 -867.02,225.7 -98.71,15.4 -96.55,42.4 -295.72,49 -205.72,-36.3 -249.23,-117.5 -308.33,-143.9 -10.98,-7.2 -19.29,-11.6 -25.35,-14.3 -13.23,0.5 -33.55,1 -54.58,4.9 -84.34,8.3 -172.07,13.8 -261.44,12.7 -312.85,5.9 -673.92,-83.5 -958.87,-292.9 -32.11,76 -64.23,152 -96.14,228.1 -28.01,-7.7 -56.02,-15.5 -83.63,-25.1 -1.12,0.3 -2.15,1.7 -2.66,2.3 -10.16,19.9 -19.91,39.1 -30.07,58.9 -64.95,125.8 -128.98,253.3 -192.07,379.4 -10.17,19.8 -19.2,39.5 -29.45,59.3 l 662.32,301.8 -209.01,673 -77.98,-20.9 c -29.86,-7.9 -338.09,-93 -723.48,-231.9 -2702.26,5705.9 -4059.35,10919.9 -4073.71,10974.4 -10.98,45.5 -51.82,78.8 -99.23,79 -47.09,1.5 -89.77,-29.5 -103.01,-74.7 l -210.96,-704.9 c -5.23,-17.4 -6.26,-36 -1.85,-53.7 1087.13,-4838.7 2242.07,-7712.3 3526.41,-10639.9 -237.03,-129.8 -442.86,-273.6 -572.04,-424.8 -40.33,-47.1 -71.82,-84.6 238.77,-475.6 l 36.83,-46.6 56.03,19.7 c 229.84,77.5 486.66,160.9 572.45,184.3 18.77,-41.9 38.16,-84.5 57.66,-125.8 33.96,-72.9 67.41,-145 100.96,-216 l 28.53,-84.1 c 6.46,-16.2 16.41,-29.9 30.68,-39.5 32.94,-71.6 66.69,-141.3 100.45,-211.1 -19.7,-47.9 -15.8,-103.8 12.52,-150.2 8.62,-14.7 40.73,-64.8 90.29,-123.2 l 115.54,-360.4 c 18.37,-58.9 67.92,-102 127.64,-114.1 -225.43,-675.4 -186.43,-1486.9 269.14,-2046.7 60.13,-72.9 120.25,-140.7 196.9,-206.4 10.47,-8.8 17.65,-15.4 33.15,-27.5 6.56,-2.2 10.46,-3.3 12.1,-4.5 -3.9,1.2 -15.39,5.1 -19.9,6.2 7.18,-2.8 42.48,-15 150.62,-50.8 h 3.9 7.09 13.85 57.35 l 114.21,-1.1 c 150,-2.7 313.77,-8.9 451.16,-16 3.8,11.2 46.69,-23.9 122.51,-68 74.49,-115.1 139.04,-213.3 192.29,-292.2 11.18,-16.9 18.67,-27.3 21.95,-33.2 5.85,-9.5 11.81,-17.7 19.6,-25.7 31.3,-28.7 75.63,-36.3 114,-20 l 189.51,79.7 c 2.06,1.5 3.9,1.8 5.24,2.7 l 276.01,134 c 251.8,-21.6 499.19,-41.8 739.54,-60.7 135.6,-8.9 269.7,-17.2 400.9,-24.9 133,-4.5 166.1,-25.4 311.7,-86.1 591.8,-141.7 991.8,-65 1430.2,-93.8 796.4,-1.6 1432.5,16.6 1880.9,35.9 0,-0.6 0,-0.6 0,-0.6 -90.4,-79.9 -164.4,-153.3 -328.8,-218.4 -129.6,-60.6 -357.3,-36.3 -580.2,-143.9 -202.4,-81.6 -415.9,-166.6 -632.7,-233.3 -421.9,-126.4 -922.2,-179.9 -1280.2,-355.21 -364.6,-149.5 -581.9,-374.52 -608.9,-403.87 -11.1,-9.84 -19.8,-20.92 -28.7,-31.91 -79.4,-20.41 -147.9,-66.17 -191.4,-117.48 -107.5,3.9 -221.7,10.47 -336.4,19.9 -419.17,33.66 -841.71,36.95 -955.4,-0.62 -159.35,32.64 -336.96,58.49 -519.6,64.04 -278.48,14.87 -579.12,-63.42 -752.32,-211.27 -23.08,4.92 -49.66,10.47 -78.29,16.51 -156.68,32.02 -390.52,75.53 -675.15,126.32 -536.12,97.06 -1265.87,227.27 -2023.1,218.96 -754.07,-59.61 -1481.04,-33.14 -2102.63,-303.92 -77.27,-28.63 -155.04,-88.76 -220.1,-155.45 -64.53,23.09 -145.6,30.27 -231.58,15.39 -46.99,-12.72 -380.67,-60.74 -863.23,-212.91 -126.31,-56.34 -239.9,-55.1 -428.59,-237.75 -125.8,-268 -68.96,-354.6 -84.96,-526.17 4.92,-303.91 36.42,-616.15 79.41,-926.63 107.02,-616.17 180.39,-1236.12 521.25,-1651.98 298.38,-142.94 530.58,-154.42 662.43,-137.91 17.13,2.16 32.53,5.03 45.76,7.69 50.28,-51.81 109.79,-97.57 181.52,-134.61 293.35,-141.19 607.84,-45.76 859.33,26.06 258.68,73.26 522.38,148.37 786.59,223.89 2115.25,575.22 4320.99,1040.23 4457.77,1018.68 55.71,4.52 109.17,12.22 159.34,20.94 71.73,-29.76 161.1,-59.51 267.5,-84.35 13.85,-3.28 28.22,-6.05 43.1,-9.33 207.99,-45.26 466.04,-60.13 737.95,-59.01 -0.5,-2.76 -0.5,-4.92 1.7,-4.92 0,2.16 1.1,3.28 1.1,5.44 58.5,0 117.6,1.13 176.5,2.77 305.5,-80.04 962,-382.72 1597.3,-751.81 224,-120.25 430.9,-242.14 670.3,-353.58 211.1,-89.37 403.7,-192.39 587.4,-279.09 68.9,-34.79 137.3,-63.92 202.4,-88.76 -79.5,-39.71 -160.5,-81.67 -243.8,-127.95 -64,-33.14 -127.5,-72.85 -192.5,-110.92 -37,6.58 -238.8,-185.82 -225.6,-279.59 156.6,-114.83 -553.7,-293.98 -511.4,-819.12 16.6,-431.36 221.9,-760.63 430.3,-1082.2 217.3,-317.67 473.2,-614.93 762.2,-889.09 145.6,-136.27 297.9,-267.61 470,-383.96 156,-90.39 390.5,-285.657 677.3,-155.55 198.6,81.06 379,221.84 510.8,294.58 14.3,23.71 136.2,-13.85 291.8,65.68 107,65.05 163.8,119.12 245.9,180.28 304.6,238.86 591.4,484.92 862.7,728.09 543.4,487.09 1025.4,964.72 1421.5,1388.9 805.8,826.81 1202.9,1547.11 1063.4,1580.25 54.6,17.14 95.9,61.77 117,123.54 20.9,61.26 21.4,140.67 -5.6,221.73 -17.1,35.92 -104.2,347.54 -380.1,714.86 -268.1,372.78 -782.6,715.9 -1329.8,849.9 -328.8,82.29 -653.6,115.34 -947.6,120.26 1.1,8.31 2.2,17.14 2.8,25.96 9.9,99.32 3.9,225.01 -37,368.46 32,-6.57 66.2,-6.05 101.5,2.77 62.4,14.88 123,54.08 173.7,111.95 36.4,61.25 753.5,848.35 1692.8,1336.46 78.9,12.72 165.5,22.67 259.8,28.11 452.3,36.43 1051.8,-78.29 1649.2,-253.75 597.4,-172.59 1215.7,-362.41 1725.4,-418.63 145.9,-18.78 280.3,-26.27 399.5,-27.5 -39,-325.06 -46.8,-648.79 16.5,-981.14 214,26.58 429.6,46.9 646.6,61.16 -5.1,26.47 -10,53.15 -14,80.04 -46.3,312.01 -12.3,625.69 40.4,935.35 31.5,17.65 58.9,37.98 80.3,61.16 38,39.81 59.6,82.19 61.7,123.54 336.8,82.29 857,258.47 1482.4,505.65 142.1,-382.21 252.7,-773.65 453.6,-1129.5 73.8,-130.72 308.7,-138.93 333.8,30.27 67,450.34 -94.2,903.96 -258.5,1324.86 482,191.26 1030.3,363.44 1599.4,626.74 93.2,46.3 179.8,88.7 278.5,147.8 108.6,59.6 190.8,196.4 231,259.2 77.3,103.8 309,247.1 449,396.6 2.4,2.2 4.6,4.6 6.9,6.7 36.1,-39.4 90.1,-59.9 144.1,-52.8 0.7,0.3 1.4,0.8 2.6,0.4 8.9,-3.9 16.9,-6.3 27.1,-7.5 13.4,-1.5 26.5,-1.2 40.2,2.2 13.4,3.5 27.3,10 38.9,19.1 l 445.6,352.9 c 1.4,0.8 2.4,2.3 4.8,3.6 l 153.7,135.8 c 31.4,27.5 43.6,70.7 31.4,111.2 z M 8213.16,14324.1 c -0.1,0.3 -0.2,0.6 -0.3,0.8 7.18,6.8 14.36,13.5 21.75,19.9 -7.49,-6.5 -14.16,-14 -21.45,-20.7 z M 2546.79,7154.49 c 8.21,126.62 18.05,241.44 27.91,342.71 -9.86,-101.27 -19.7,-216.09 -27.91,-342.71 z M 13629.8,3470.07 c 34.3,-59.93 70.9,-121.07 109.8,-182.64 -38.9,61.57 -75.5,122.71 -109.8,182.64 z m 900.5,6255.56 c 0.3,-0.22 0.6,-0.42 0.8,-0.52 0.1,-0.11 0.2,-0.11 0.4,-0.21 -0.4,0.21 -0.8,0.41 -1.2,0.73 z m 115.6,-2510.4 c -0.1,0.1 -0.3,0.21 -0.5,0.21 0.2,0 0.4,-0.11 0.7,-0.21 -0.1,0 -0.1,0 -0.2,0 z m 374,3859.27 0.2,-18.3 2,-189.1 z M 15191,7215.23 c 0,0 0,0 0,0.1 0.4,-0.41 1.3,-0.71 1.9,-1.12 -0.6,0.41 -1.5,0.71 -1.9,1.02 z m 2908.1,-730.35 c -63.5,58.48 -132.9,114.92 -207.6,168.28 74.8,-53.36 144.2,-109.8 207.6,-168.28 z m -2138.5,8839.32 c 2.2,15 3.9,30.1 6.3,45.1 1.7,11.4 3.6,22.8 5.4,34.1 1,5.9 2.3,11.7 3.3,17.5 -5.3,-32 -10.4,-64.3 -15,-96.7 z m 773.8,140.1 c 0.1,1.1 0.1,2.3 0.1,3.5 0.1,2.2 0.2,4.1 0.3,6.3 -0.1,-3.3 -0.3,-6.5 -0.4,-9.8 z m 1834.3,2696.3 c -0.1,0 -0.1,0 -0.1,0 350,81.6 571.6,88.2 629.7,94.1 -57.9,-6 -279.2,-12.4 -629.6,-94.1 z m 2884.4,-2914.2 c 82.6,-99.8 158.3,-201.3 227.2,-303.2 -69,101.8 -144.6,203.4 -227.2,303.2 z m -3,358.9 c 0.1,-0.2 0.3,-0.4 0.5,-0.6 -0.1,0.2 -0.4,0.4 -0.5,0.6 z m -166.3,-1164.9 c 24.4,-31.4 48.1,-63 71.2,-94.6 -23.1,31.6 -46.8,63.2 -71.2,94.6 z m 460.8,-3455.6 c -74.9,20.5 -173,47.7 -193,53.4 23.7,-6.7 157.3,-43.6 231.7,-64.1 -11.6,3.2 -24.9,6.8 -38.7,10.7 z m 545.5,430.6 c -136.2,-1.1 -291.2,-4.4 -457.2,-63.5 -30.8,-8.2 -62.4,-19.2 -94.3,-34.6 -37.5,39.1 -80,73.2 -124.1,101.3 -201.3,108.2 -394.3,130.8 -565.4,127.5 290.2,164.3 558.8,366.3 794.3,602.9 96.9,96 187.4,198.2 272.5,304.6 81,-182.7 177.3,-358.4 224.8,-498.7 62.2,-183.7 112.8,-370.6 152.7,-559.7 -61,11 -128.8,19.1 -203.3,20.2 z m 676.2,359.6 c -72.6,216.2 -160.8,424.7 -266,630.3 l -0.1,0.1 c 140.8,-163.1 278.7,-329.3 415.5,-495.7 -57.5,-52.4 -107.9,-97.7 -149.4,-134.7 z m 3323.4,-164.1 c 51.9,-66.9 104.8,-129.2 157.7,-186.6 -52.9,57.4 -105.8,119.7 -157.7,186.6 z m 256.4,-289.2 c 53.1,-52.7 105,-100.1 153.8,-142.1 -48.9,42 -100.7,89.4 -153.8,142.1 z m 304.4,-262.2 c 33.6,-24.4 63.8,-44.9 90,-61.6 -26.2,16.6 -56.4,37.2 -90,61.6"
       style="fill:#3a393a;fill-opacity:1;fill-rule:nonzero;stroke:none"
       transform="matrix(0.13333333,0,0,-0.13333333,0,4000)" />
    <path
       id="path2"
       d="m 26973.8,13696.3 c -33.6,66.9 -97.6,149.1 -179.8,225 -67.4,35.3 -136.5,54.6 -207.1,51.2 -154.4,0.5 -325.4,-63.4 -492.5,-144 l -253.7,-129.1 -127,-66.1 c 0,-0.6 0,-1.1 0,-1.6 1.2,-0.6 1.2,-1.7 -0.5,-2.3 -24.8,-279.7 -57.8,-887.5 238.4,-1449.5 68.5,-161.9 153.4,-309.8 245.2,-442.8 14.2,28.9 33.2,57.1 59.8,83.8 441.3,551.6 1103.3,1158.4 717.2,1875.4"
       style="fill:#f46f16;fill-opacity:1;fill-rule:nonzero;stroke:none"
       transform="matrix(0.13333333,0,0,-0.13333333,0,4000)" />
    <path
       id="path3"
       d="m 27914,12178.8 c -135.7,388.8 -317.1,771.6 -539.5,1111.4 -172.7,247.7 -368.4,520.1 -580.5,631.1 82.2,-75.9 146.2,-158.1 179.8,-225 386.1,-717 -275.9,-1323.8 -717.2,-1875.4 -26.6,-26.7 -45.6,-54.9 -59.8,-83.8 351.4,-509 805.4,-796.8 845.2,-788.8 49,-28.2 86.6,-64 107,-116 4.4,-10.4 8.2,-21.9 11,-34.1 154.5,169.9 284.6,235.5 412.6,380 279.1,280.8 469.9,652.5 341.4,1000.6"
       style="fill:#f46f16;fill-opacity:1;fill-rule:nonzero;stroke:none"
       transform="matrix(0.13333333,0,0,-0.13333333,0,4000)" />
    <path
       id="path4"
       d="m 20685.8,14799.4 c -1022,577.7 -2187.1,832.3 -3322.5,823.3 0.5,-267 20.9,-536.9 63.9,-803.7 405.5,-193.9 813.5,-383.5 1223.2,-564.1 239.3,-105.4 479.2,-207.5 718.6,-299.5 242.8,-68.4 504.8,-227.8 552.2,-113.1 194.7,108.1 404.8,274.1 606.7,432.5 l 307.8,247.6 c 35,27.6 70.4,55.5 106.5,83.6 -74.2,76.2 -156.6,143.5 -256.4,193.4"
       style="fill:#f46f16;fill-opacity:1;fill-rule:nonzero;stroke:none"
       transform="matrix(0.13333333,0,0,-0.13333333,0,4000)" />
    <path
       id="path5"
       d="m 19975.7,15538.9 c -837.2,458.4 -1848.2,465 -2584,425.3 -125.2,-7.1 -241,-20.4 -348.7,-37.5 6.2,-104.1 12.9,-208.1 20.4,-311.8 5.5,-75 11,-150 17.7,-224.3 12.2,-127.4 26,-255.9 45.9,-371.8 3.8,-23.2 7.6,-43 12.1,-61.2 l 84.9,-41.4 c 67.5,-32.5 135.5,-64.8 203.2,-97.2 -42.9,266.6 -63.3,536.3 -63.9,802.9 1135.4,9.1 2300.5,-244.8 3322.5,-822.5 99.8,-49.9 182.2,-117.2 256.4,-193.4 18.1,14.1 35.9,28 54.6,42.2 20.4,16.5 45.1,33.6 70,51.2 -298.9,325.5 -668.5,623.9 -1091.1,839.5"
       style="fill:#d46013;fill-opacity:1;fill-rule:nonzero;stroke:none"
       transform="matrix(0.13333333,0,0,-0.13333333,0,4000)" />
    <path
       id="path6"
       d="m 16303.4,7393.88 c -10.4,114.81 -41.9,264.82 -134.6,431.86 -185.8,364.06 -579.6,775 -1025.3,1115.35 -879.3,709.21 -2061.8,875.85 -2134.1,922.74 -71.7,18.78 -132.3,53.47 -176.6,94.91 -5.9,-2.26 -11.4,-5.02 -17.5,-7.18 -256.5,-97.68 -508.6,-164.37 -732.5,-233.33 61.8,-8.31 124.7,-18.78 189.7,-32.62 570.4,-111.85 1277.5,-329.79 1922.8,-691.57 317.6,-172.69 627.7,-353.08 915.6,-519.61 292.4,-138.52 575.4,-387.24 720.9,-597.38 175.4,-214.04 317.2,-398.73 407.6,-499.69 21.5,0.51 43.6,0.51 65.7,0.51 -0.5,5.54 -1.2,10.57 -1.7,16.01"
       style="fill:#525253;fill-opacity:1;fill-rule:nonzero;stroke:none"
       transform="matrix(0.13333333,0,0,-0.13333333,0,4000)" />
    <path
       id="path7"
       d="m 12918.9,4028.66 c -63.4,-44.63 -126.3,-90.39 -183.6,-135.64 -121.9,-99.84 -160.5,-149.39 -167.2,-280.73 -1.2,-208.2 101,-458.25 238.2,-698.75 33.8,-11.81 68.1,-21.24 102.4,-28.12 257.5,-44.12 508.1,-57.98 752.2,-47.21 -377.1,436.91 -636,924.29 -738.7,1193.33 -1,-1.13 -2.1,-1.65 -3.3,-2.88"
       style="fill:#f46f16;fill-opacity:1;fill-rule:nonzero;stroke:none"
       transform="matrix(0.13333333,0,0,-0.13333333,0,4000)" />
    <path
       id="path8"
       d="m 12908.7,2885.42 c -34.3,6.88 -68.6,16.31 -102.4,28.12 35.8,-62.81 73.7,-124.88 113.3,-185.43 194.6,-297.24 432.3,-585.77 698.2,-848.86 133,-130.73 273.5,-256.52 422,-361.79 153.9,-99.84 303.3,-204.6 394.3,-135.65 165.5,63.42 297.4,167.05 504.1,276.22 17.7,6.16 33.7,10.47 49.7,14.36 -67.8,46.38 -142.8,107.02 -225.5,177.62 -225.7,201.31 -596.3,449.52 -898.6,770.07 -71.1,70.28 -138.6,143.55 -202.9,218.13 -244.1,-10.77 -494.7,3.09 -752.2,47.21"
       style="fill:#d46013;fill-opacity:1;fill-rule:nonzero;stroke:none"
       transform="matrix(0.13333333,0,0,-0.13333333,0,4000)" />
    <path
       id="path9"
       d="m 13358,14047.4 c -0.5,0 -0.5,0 -1.1,-0.4 1.1,0 2.2,-0.6 3.3,-1.2 -0.5,1.2 -1.1,1.6 -2.2,1.6"
       style="fill:#3a393a;fill-opacity:1;fill-rule:nonzero;stroke:none"
       transform="matrix(0.13333333,0,0,-0.13333333,0,4000)" />
    <path
       id="path10"
       d="m 23049.4,8645.98 c 31.5,17.65 58.9,37.98 80.3,61.16 38,39.81 59.6,82.19 61.7,123.54 336.8,82.29 857,258.47 1482.4,505.65 142.1,-382.21 252.7,-773.65 453.6,-1129.5 73.8,-130.72 308.7,-138.93 333.8,30.27 67,450.34 -94.2,903.96 -258.5,1324.86 482,191.26 1030.3,363.44 1599.4,626.74 93.2,46.3 179.8,88.7 278.5,147.8 108.6,59.6 190.8,196.4 231,259.2 77.3,103.8 309,247.1 449,396.6 308.4,286.3 600.7,778.3 432.5,1277.5 -136.2,419.7 -315.5,820.2 -548.3,1193 -109.2,185.9 -256.9,369.6 -396.6,521.8 -151.1,175.5 -391.6,328.2 -651.9,332.7 -254.8,3.8 -466.6,-83.9 -652.5,-166.6 -92.7,-43.1 -182,-87.3 -267.5,-130.3 l -99.9,-49.5 c -12.7,3.3 -28.6,7.6 -44.1,10.5 -119.1,32 -285.7,12.6 -396,-55.2 -123.1,-71.3 -167.2,-121.9 -246.5,-185.4 -140.8,-120.8 -267.6,-242.7 -387.8,-362.4 -421.6,-422 -765.4,-827.9 -1021.9,-1113.3 -124.8,137.5 -252.8,271.9 -385.2,402.5 -172.7,170.2 -374.4,296.2 -557.4,447.3 256.8,514.7 396.6,1088 394.8,1663.5 3.2,974 -397.2,1943.1 -1088.9,2629.3 -686.1,691.1 -1655.3,1092.1 -2629.3,1088.8 -974.2,3.3 -1943.3,-397.2 -2629.4,-1088.8 -691.7,-686.2 -1092.1,-1655.3 -1088.8,-2629.3 -1.6,-470.5 91.5,-938.8 265.9,-1375.8 -369.6,205.3 -1072.3,564.9 -2101.5,934 -107.6,23.2 -174.9,90.9 -370.6,76.1 -170,-39.2 -248.9,-118.1 -293.5,-107.6 -135.8,35.3 -427.5,131.2 -649.7,195.9 -481.7,143.8 -1003.4,293.3 -1561.6,444.4 -279.6,75.6 -567.5,151.7 -867.02,225.7 -98.71,15.4 -96.55,42.4 -295.72,49 -205.72,-36.3 -249.23,-117.5 -308.33,-143.9 -10.98,-7.2 -19.29,-11.6 -25.35,-14.3 -13.23,0.5 -33.55,1 -54.58,4.9 -84.34,8.3 -172.07,13.8 -261.44,12.7 -353.59,6.6 -768.94,-108.1 -1066.19,-380.6 -300.64,-266.9 -475.49,-619.5 -603.95,-969.6 -265.86,-694.5 -247.18,-1562.7 232.2,-2151.7 60.13,-72.9 120.25,-140.7 196.9,-206.4 10.47,-8.8 17.65,-15.4 33.15,-27.5 6.56,-2.2 10.46,-3.3 12.1,-4.5 -3.9,1.2 -15.39,5.1 -19.9,6.2 7.18,-2.8 42.48,-15 150.62,-50.8 h 3.9 7.09 13.85 57.35 l 114.21,-1.1 c 150,-2.7 313.77,-8.9 451.16,-16 7.18,21 148.88,-119.1 389.91,-178.2 190.33,-22 302.27,-23.7 454.55,-36.3 285.65,-24.8 564.75,-47.5 836.19,-68.9 135.6,-8.9 269.7,-17.2 400.9,-24.9 133,-4.5 166.1,-25.4 311.7,-86.1 591.8,-141.7 991.8,-65 1430.2,-93.8 796.4,-1.6 1432.5,16.6 1880.9,35.9 0,-0.6 0,-0.6 0,-0.6 -90.4,-79.9 -164.4,-153.3 -328.8,-218.4 -129.6,-60.6 -357.3,-36.3 -580.2,-143.9 -202.4,-81.6 -415.9,-166.6 -632.7,-233.3 -421.9,-126.4 -922.2,-179.9 -1280.2,-355.21 -364.6,-149.5 -581.9,-374.52 -608.9,-403.87 -11.1,-9.84 -19.8,-20.92 -28.7,-31.91 -79.4,-20.41 -147.9,-66.17 -191.4,-117.48 -107.5,3.9 -221.7,10.47 -336.4,19.9 -419.17,33.66 -841.71,36.95 -955.4,-0.62 -159.35,32.64 -336.96,58.49 -519.6,64.04 -278.48,14.87 -579.12,-63.42 -752.32,-211.27 -23.08,4.92 -49.66,10.47 -78.29,16.51 -156.68,32.02 -390.52,75.53 -675.15,126.32 -536.12,97.06 -1265.87,227.27 -2023.1,218.96 -754.07,-59.61 -1481.04,-33.14 -2102.63,-303.92 -77.27,-28.63 -155.04,-88.76 -220.1,-155.45 -64.53,23.09 -145.6,30.27 -231.58,15.39 -46.99,-12.72 -380.67,-60.74 -863.23,-212.91 -126.31,-56.34 -239.9,-55.1 -428.59,-237.75 -125.8,-268 -68.96,-354.6 -84.96,-526.17 4.92,-303.91 36.42,-616.15 79.41,-926.63 107.02,-616.17 180.39,-1236.12 521.25,-1651.98 298.38,-142.94 530.58,-154.42 662.43,-137.91 17.13,2.16 32.53,5.03 45.76,7.69 50.28,-51.81 109.79,-97.57 181.52,-134.61 293.35,-141.19 607.84,-45.76 859.33,26.06 258.68,73.26 522.38,148.37 786.59,223.89 2115.25,575.22 4320.99,1040.23 4457.77,1018.68 55.71,4.52 109.17,12.22 159.34,20.94 71.73,-29.76 161.1,-59.51 267.5,-84.35 13.85,-3.28 28.22,-6.05 43.1,-9.33 207.99,-45.26 466.04,-60.13 737.95,-59.01 -0.5,-2.76 -0.5,-4.92 1.7,-4.92 0,2.16 1.1,3.28 1.1,5.44 58.5,0 117.6,1.13 176.5,2.77 305.5,-80.04 962,-382.72 1597.3,-751.81 224,-120.25 430.9,-242.14 670.3,-353.58 211.1,-89.37 403.7,-192.39 587.4,-279.09 68.9,-34.79 137.3,-63.92 202.4,-88.76 -79.5,-39.71 -160.5,-81.67 -243.8,-127.95 -64,-33.14 -127.5,-72.85 -192.5,-110.92 -37,6.58 -238.8,-185.82 -225.6,-279.59 156.6,-114.83 -553.7,-293.98 -511.4,-819.12 16.6,-431.36 221.9,-760.63 430.3,-1082.2 217.3,-317.67 473.2,-614.93 762.2,-889.09 145.6,-136.27 297.9,-267.61 470,-383.96 156,-90.39 390.5,-285.657 677.3,-155.55 198.6,81.06 379,221.84 510.8,294.58 14.3,23.71 136.2,-13.85 291.8,65.68 107,65.05 163.8,119.12 245.9,180.28 304.6,238.86 591.4,484.92 862.7,728.09 543.4,487.09 1025.4,964.72 1421.5,1388.9 805.8,826.81 1202.9,1547.11 1063.4,1580.25 77.2,-28.11 -340.9,-672.39 -1179.3,-1467.8 -410.4,-403.14 -905.1,-860.46 -1457.7,-1325.88 -276.4,-232.31 -566.5,-467.79 -870.4,-692.81 -71.8,-51.31 -162.8,-124.15 -221.3,-154.42 -8.3,-13.24 -38.5,-10.57 -89.3,-12.73 -57.9,57.37 -140.1,151.76 -243.2,271.4 -215.2,258.17 -533.4,521.86 -795.4,853.28 -542.7,640.37 -839.5,1451.69 -799.2,1477.13 -17.2,53.97 -30.4,88.76 -71.2,124.16 -2.2,2.16 -4.5,3.8 -6.6,5.44 37.5,21.44 74.5,42.48 112.4,61.25 119.8,63.92 237.3,119.65 348.7,173.2 225,102.61 428.6,188.6 602.3,258.17 348.1,138.41 575.8,216.7 629.4,237.63 217.8,78.91 408.7,168.79 541.1,252.11 132.8,83.22 206.8,160.99 190.2,215.68 -16.5,55.1 -123.5,76.03 -282.4,63.4 -158.3,-12.71 -368.5,-60.12 -590.7,-140.67 -55.2,-20.93 -286.3,-103.63 -641.5,-251.48 -39.1,-16.53 -80.5,-33.65 -123,-51.82 -20.3,3.8 -41.4,6.56 -63.4,10.46 -30.3,-2.26 -252,-2.76 -601.2,144.47 -173.7,70.6 -383.3,168.28 -616.7,249.34 -198,77.78 -436.3,194.14 -662.4,295.61 -459,208.5 -922.2,404.38 -1288.4,506.98 -1.8,0 -2.3,0.51 -3.9,0.51 375.1,16.53 733.6,17.66 1001.1,-32.01 307.2,-50.17 491.4,-150.01 519.5,-157.19 49.7,-26.99 105.4,-30.38 158.3,-16.01 53,14.88 103.1,46.89 133.5,95.43 30.4,48.53 34.2,105.38 12.7,159.96 -21.5,53.97 -68.9,105.89 -133.5,139.55 -32.5,9.84 -279.1,123.03 -639.8,157.81 -359.7,42.47 -809.7,-2.88 -1235,-61.87 -427.5,-60.65 -840.56,-106.41 -1150.02,-88.25 -10.46,0.51 -20.42,1.13 -30.89,1.74 -9.84,0.41 -19.9,1.03 -29.75,2.16 84.96,33.66 140.67,79.42 145.09,130.21 4.41,57.25 -59.62,110.82 -172.7,151.66 -114.19,44.63 -273.03,53.96 -445.61,40.21 -202.45,11.6 -2385.01,-498.66 -4498.72,-1151.14 -515.7,-124.67 -1080.55,-458.86 -1463.27,-320.45 -375.14,196.4 -387.14,778.28 -398.22,1147.35 4.92,552.65 61.15,978.98 83.31,1192.91 8.73,-5.43 18.17,-9.84 28.12,-12.61 55.1,-14.88 117.48,14.27 172.59,73.98 55.71,58.89 104.86,147.14 136.25,249.75 8.32,25.44 38.59,134 95.43,294.07 78.91,163.76 105.37,380.05 299.51,464.39 431.36,223.89 1232.83,265.34 1937.12,350.31 719.79,44.62 1444.51,-37.56 1989.56,-86.09 285.14,-24.32 520.11,-39.72 680.59,-44.23 10.57,0 20.93,-0.41 30.88,-0.41 -131.85,-145.7 -147.24,-275.81 -129.59,-281.34 30.88,-17.14 105.37,102.6 263.7,190.85 158.22,89.26 403.66,117.99 657.41,71.1 506.87,-83.83 1004.92,-337.47 1043.1,-345.27 37.45,-14.37 81.06,-7.18 119.64,18.26 38.58,24.83 73.37,66.7 94.77,120.26 21.6,53.46 24.9,107.53 13.9,152.68 -3.9,14.98 -10,28.11 -16.5,40.32 66.7,-15.49 134.5,-31.49 203.4,-47.5 479.9,-117.38 1012.2,-150.53 1053,-137.8 39.2,1.63 73.4,26.47 95.9,65.04 12.2,19.81 20.4,43.62 25.5,69.47 59.5,-8.82 123.5,-21.95 191.9,-40.22 409.3,-102.6 920,-325.98 1350.3,-683.98 439,-350.2 875.3,-742.36 1268.5,-941.52 392.8,-206.86 695.6,-210.14 695.6,-186.44 6.1,32.53 -271.3,90.5 -612.8,325.37 -346.4,229.02 -730.9,633.91 -1162.1,1027.7 -398.3,377.81 -905.7,651.98 -1336,796.45 118.6,-1.65 255.4,-11.6 409.2,-35.92 525.8,-81.67 1228.4,-265.75 1852.8,-576.34 321.1,-152.78 638.2,-313.26 938.2,-462.24 322.7,-134.63 520.7,-292.84 709.4,-499.19 153.9,-158.84 285.7,-301.15 404.9,-395.96 -550,-22.16 -935.5,-131.34 -927.8,-152.27 0,-74.5 1081,80.54 2067.3,-246.57 489.7,-159.96 898.4,-475.37 1105.9,-794.79 212.8,-315.52 279.6,-588.04 295.1,-622.21 24.2,-71.73 66.2,-131.24 117.4,-171.45 50.8,-39.82 110.4,-56.85 165,-40.33 54.6,17.14 95.9,61.77 117,123.54 20.9,61.26 21.4,140.67 -5.6,221.73 -17.1,35.92 -104.2,347.54 -380.1,714.86 -268.1,372.78 -782.6,715.9 -1329.8,849.9 -328.8,82.29 -653.6,115.34 -947.6,120.26 1.1,8.31 2.2,17.14 2.8,25.96 9.9,99.32 3.9,225.01 -37,368.46 32,-6.57 66.2,-6.05 101.5,2.77 62.4,14.88 123,54.08 173.7,111.95 36.4,61.25 753.5,848.35 1692.8,1336.46 78.9,12.72 165.5,22.67 259.8,28.11 452.3,36.43 1051.8,-78.29 1649.2,-253.75 597.4,-172.59 1215.7,-362.41 1725.4,-418.63 145.9,-18.78 280.3,-26.27 399.5,-27.5 -39,-325.06 -46.8,-648.79 16.5,-981.14 214,26.58 429.6,46.9 646.6,61.16 -5.1,26.47 -10,53.15 -14,80.04 -46.3,312.01 -12.3,625.69 40.4,935.35 z m -9185.6,-6025.9 c 302.3,-320.55 672.9,-568.76 898.6,-770.07 82.7,-70.6 157.7,-131.24 225.5,-177.62 -16,-3.89 -32,-8.2 -49.7,-14.36 -206.7,-109.17 -338.6,-212.8 -504.1,-276.22 -91,-68.95 -240.4,35.81 -394.3,135.65 -148.5,105.27 -289,231.06 -422,361.79 -265.9,263.09 -503.6,551.62 -698.2,848.86 -190.4,292.34 -353,621.7 -351.5,884.18 6.7,131.34 45.3,180.89 167.2,280.73 57.3,45.25 120.2,91.01 183.6,135.64 1.2,1.23 2.3,1.75 3.3,2.88 120.4,-315.01 454.1,-929.42 941.6,-1411.46 z M 2663.04,8590.27 c -69.47,-175.97 -103.23,-288.01 -112.05,-315.51 -33.55,-108.67 -38.58,-213.43 -21.96,-294.08 8.21,-39.09 21.45,-72.75 39.72,-98.71 -3.91,-12.11 -7.8,-24.82 -11.6,-39.18 -59.51,-209.54 -151.14,-628.17 -190.85,-1190.77 -10.46,-207.36 -11.59,-434.64 30.37,-678.43 30.88,-155.04 82.08,-340.86 200.19,-492.01 -129.7,22.06 -341.48,68.34 -547.72,190.24 -216.8,324.44 -285.76,976.4 -340.86,1567.01 -23.19,302.28 -36.42,609.49 -26.47,891.46 -21.04,125.69 68.84,283.39 -3.29,332.54 89.27,-45.24 175.98,61.26 286.79,68.96 329.78,88.75 603.44,133.48 736.82,154.42 -14.26,-33.65 -27.5,-65.67 -39.09,-95.94 z M 25713.2,13629.4 c 1.7,0.6 1.7,1.7 0.5,2.3 0,0.5 0,1 0,1.6 l 127,66.1 253.7,129.1 c 167.1,80.6 338.1,144.5 492.5,144 292.4,14.4 559.9,-355.8 787.6,-682.3 222.4,-339.8 403.8,-722.6 539.5,-1111.4 128.5,-348.1 -62.3,-719.8 -341.4,-1000.6 -128,-144.5 -258.1,-210.1 -412.6,-380 -2.8,12.2 -6.6,23.7 -11,34.1 -20.4,52 -58,87.8 -107,116 -50.2,-10.1 -759.5,450 -1090.4,1231.6 -296.2,562 -263.2,1169.8 -238.4,1449.5 z m -121.9,196.4 c 5.2,-10.5 9.3,-19.3 13,-26.9 -2,3.8 -4.1,8 -6.8,13.1 l -6.2,12.2 z m -2475.6,-1916.1 c -57.5,-52.4 -107.9,-97.7 -149.4,-134.7 -72.6,216.2 -160.8,424.7 -266,630.3 l -0.1,0.1 c 140.8,-163.1 278.7,-329.3 415.5,-495.7 z m -6472.5,5023.6 c 579.7,738.6 1303.3,1056.8 1789.3,1193.6 495.8,131.8 781.6,120.8 781.6,131.3 0,-10.5 285.6,0.5 781.5,-131.3 486,-136.8 1209.6,-455 1789.4,-1193.6 575.2,-713.2 945.8,-1899 558.2,-3105.9 -10.1,-33 -20.4,-66.1 -32,-99.3 -23.2,196.4 -71.2,442.5 -173.8,717.7 -241.1,705.4 -875.4,1555.4 -1772.8,2057.8 -1421.9,761.8 -3019.8,595.2 -3757.8,382.9 12.1,15.9 24.3,31.4 36.4,46.8 z m 5850.2,-5538.1 c -61,11 -128.8,19.1 -203.3,20.2 -136.2,-1.1 -291.2,-4.4 -457.2,-63.5 -30.8,-8.2 -62.4,-19.2 -94.3,-34.6 -37.5,39.1 -80,73.2 -124.1,101.3 -201.3,108.2 -394.3,130.8 -565.4,127.5 290.2,164.3 558.8,366.3 794.3,602.9 96.9,96 187.4,198.2 272.5,304.6 81,-182.7 177.3,-358.4 224.8,-498.7 62.2,-183.7 112.8,-370.6 152.7,-559.7 z m -6276.1,4831.6 c 60.2,34.2 125.3,73.9 199.2,118.6 40.7,36.4 472.7,281.2 1223.4,325.4 735.8,39.7 1746.8,33.6 2584,-425.3 851.2,-434.6 1488.3,-1204.1 1763.5,-1859.9 150,-327.1 215.6,-624.3 257.6,-832.9 -56.3,-134.6 -123.6,-267.4 -200.8,-396 -28.1,169.9 -74.5,366.8 -155,582.5 -112,328.1 -310,687.3 -579.2,1028.1 v 2.7 31 c -8.3,-1.7 -15.4,-2.8 -23.1,-4.4 -306.7,381.1 -702.2,737.9 -1170.5,999.9 -1557,834.6 -3324.9,556 -3944.3,322.2 15,36.3 29.9,72.8 45.2,108.1 z m 4849.5,-1527.4 c -24.9,-17.6 -49.6,-34.7 -70,-51.2 -56.4,-42.5 -108.8,-84.4 -161.1,-125.8 l -307.8,-247.6 c -201.9,-158.4 -412,-324.4 -606.7,-432.5 -47.4,-114.7 -309.4,44.7 -552.2,113.1 -239.4,92 -479.3,194.1 -718.6,299.5 -478.3,210.8 -954.3,433.5 -1426.4,661.3 l -84.9,41.4 c -4.5,18.2 -8.3,38 -12.1,61.2 -19.9,115.9 -33.7,244.4 -45.9,371.8 -16,177.1 -27.5,356.8 -38.1,536.1 107.7,17.1 223.5,30.4 348.7,37.5 735.8,39.7 1746.8,33.1 2584,-425.3 422.6,-215.6 792.2,-514 1091.1,-839.5 z m -5070.1,836.8 c 52.5,30.3 108.7,65.1 171.6,102.6 27,24.3 232.2,142.9 591.2,231.7 -13.2,-148.4 -26.5,-351.4 -30.2,-602.3 4.4,-149 -11.1,-283 40.8,-500.9 -9.5,-6.1 48.5,-111.4 111.3,-143.4 l 56.3,-33.7 115.9,-67.8 c 78.3,-45.3 160,-91 244.3,-137.9 338.1,-186.9 724.8,-384.5 1156.7,-575.3 439,-187 828.4,-349.1 1255.9,-433 344.8,-48.5 489.2,161.1 623.8,242.7 135.1,110.9 248.2,218.4 349.1,317.2 272,273.6 455.1,474.4 550.5,568.1 221.2,-273.6 393.3,-558.8 505.3,-825.1 111.4,-243.3 176.5,-470 219.4,-655.9 -564.1,-837.8 -1569.1,-1480.4 -2744.5,-1476.5 -1532.3,-4.9 -2776.2,1088.2 -3129.1,2280.7 -190.3,592.4 -197.4,1179.8 -88.3,1708.8 z m 722.1,-3515.3 c 406.6,-369.1 897.9,-643.1 1423.6,-802.1 -168.9,-77.8 -367.1,-174.6 -566.1,-274.2 -293.3,-147.1 -587,-297.6 -787,-400.4 111.8,578.3 27.2,1132.7 -70.5,1476.7 z m -300.6,274.8 c -0.7,11.3 -1.6,22.8 -2.5,34.1 50.5,-57.7 102.7,-113.9 156.9,-168.3 38.6,-321 108.8,-961.6 -77.3,-1590.1 -218.4,-887.02 -792.5,-1636.06 -830,-1682.02 -5.9,-8.42 -10.7,-17.24 -15.6,-25.97 -101.3,105.07 -208.8,207.37 -320.3,304.85 -13.8,12.52 -27.9,24.01 -41.7,36.12 375.3,599.64 719.2,1227.42 946,1921.32 116,367.8 200.2,757.5 184.5,1170 z m -6731.5,2465.1 c 1.64,-5.1 0.62,-5.1 -1.64,-0.7 0.62,0.7 1.13,0.7 1.64,0.7 z M 8548.28,11742 c -191.88,13.2 -359.54,19.8 -545.98,23.7 -21.54,21.5 -43.6,44.7 -63.51,69.5 -54.07,62.2 -99.22,133.4 -141.7,205.7 -80.55,147.3 -137.39,309.4 -163.35,478.7 -49.04,339.9 0,702.3 126.92,1046.4 123.54,345.3 301.16,668.5 564.75,850 250.98,164.9 466.15,197.4 848.98,186.9 -129.7,-300.6 -278.07,-707.1 -383.96,-1137.9 -132.88,-748.4 -200.8,-1443.4 -242.15,-1723 z m 4899.62,-1490.4 c 164.5,109.8 371.8,104.2 553.2,209.1 156.2,83.7 276.4,231.6 317.2,304.9 9.9,13.3 19.3,24.9 28.7,36 8.8,10.4 17.1,19.8 24.9,28.6 423.5,19.3 650.2,38.1 650.2,36.9 l -2.2,207.4 -0.5,31 c -784.9,-5.1 -1575.9,7.6 -2362.4,35.8 -393.3,14.3 -786.5,33.1 -1178.8,57.9 -86.6,8.3 -222.2,8.3 -268,23.7 -42.5,1.6 -110.4,41.9 -226.1,91 -300.7,106.5 -449,70.1 -654.3,102.1 -390.99,36.9 -781,86 -1184.14,119.6 -140.06,15 -110.82,2.3 -182.54,40.8 -6.67,2.8 -13.85,6.6 -21.03,10.5 28.73,117.5 65.15,1028.8 136.87,1822.9 68.34,438.6 180.28,868.8 264.73,1187 8.83,-0.4 16.52,-0.4 25.35,-1 183.66,50.7 254.25,125.1 295.09,153.9 4.42,-0.6 8.31,0 12.11,0.5 l 140.67,-31.5 574.19,-137.3 c 382.8,-93.2 765.6,-190.2 1147.8,-289.6 381.7,-98.7 763.5,-200.7 1143.4,-304.9 96.1,-13.9 158.9,-78.4 397.2,-57.5 174.9,42.5 259.8,115.4 277.4,117.6 -2.7,1 -4.3,1.7 -5,1.7 0.7,0.4 2.8,0 6.1,-1.3 22.7,-5.9 98.8,-29.1 168.3,-49.5 93.1,-26 185.3,-57.4 277.4,-86.1 703.6,-231.2 1399.8,-522.6 2063.4,-849.2 42.4,-84.9 84.5,-197 108,-336.8 67.8,-355.4 -12.3,-861.4 -204.8,-1452.2 -305.6,-883.6 -587.3,-1590.77 -699.7,-1891.3 -638.8,481.02 -1367.4,711 -1728,814.7 35.3,18.2 71.1,36.3 105.3,54.6 z m 2791.5,-2874.24 c -90.4,100.96 -232.2,285.65 -407.6,499.69 -145.5,210.14 -428.5,458.86 -720.9,597.38 -287.9,166.53 -598,346.92 -915.6,519.61 -645.3,361.78 -1352.4,579.72 -1922.8,691.57 -65,13.84 -127.9,24.31 -189.7,32.62 223.9,68.96 476,135.65 732.5,233.33 6.1,2.16 11.6,4.92 17.5,7.18 44.3,-41.44 104.9,-76.13 176.6,-94.91 72.3,-46.89 1254.8,-213.53 2134.1,-922.74 445.7,-340.35 839.5,-751.29 1025.3,-1115.35 92.7,-167.04 124.2,-317.05 134.6,-431.86 0.5,-5.44 1.2,-10.47 1.7,-16.01 -22.1,0 -44.2,0 -65.7,-0.51 z m 6578.7,1619.95 c -43.1,-3.89 -353,-77.15 -819.7,-38.06 -466.6,30.26 -1074.5,183.15 -1691.7,322.69 -542.7,125.19 -1111.9,200.19 -1565.3,154.43 794.3,366.21 1554.3,500.21 1548.2,543.31 1.1,64.02 -1089.4,-7.8 -2087.1,-489.86 -1016,-436.27 -1837.3,-1255.9 -1879.8,-1327.62 -33,-36.95 -55.7,-78.91 -71.1,-119.75 -83.5,172.18 -199.8,348.46 -338.2,521.66 33,20 63.7,46.79 88.9,81.47 36.1,44.12 443.9,634.31 670.4,1392.02 24.2,-1 48,3.4 67.4,14.5 41.1,20.2 523.8,323.6 985,639.1 244.9,167 484,336.1 650.8,466 274.6,-64 556,-98 838.2,-97.1 503,-1.6 1003.8,104.9 1465.5,302.9 14.3,-1.1 28.1,-2.2 43,-3.3 217.3,-22.6 541.1,-39.8 725.9,-183.6 41.8,-37.1 75.6,-76.8 96,-124.8 l 4.4,-8.2 2.2,-3.9 0.5,-0.5 v -0.5 c 23.7,-6.7 157.3,-43.6 231.7,-64.1 l 1.1,0.7 2.8,0.4 19.8,7.2 38.7,15.5 c 23.7,12.2 52.3,18.7 82.1,23.1 113.1,28.7 236.7,19.8 336.5,12.1 52.9,-6 99.2,-14.8 139.5,-25.3 -30.9,-129.7 -6.6,-219.6 37,-228.4 56.2,-12.6 123,57.5 227.2,153.9 8.3,2.3 17.1,5.5 27,10 40.3,17.1 91,44.1 131.9,84.4 30.3,29.8 49.6,65.1 54.6,103 76.1,70.2 161.1,147.9 251,232.8 44.1,46.9 236.6,210.2 547.7,516.9 296.1,328.7 635.9,755.1 1094.8,1229.4 210.1,193.6 529,579.7 680.7,514.1 18.7,-2.7 33,-8.8 72.2,-16 -3.3,-12.1 41.4,-9.4 88.3,-2.2 -32.6,-83.8 -65.1,-194.7 -85.5,-329.9 -49.7,-328.1 -10,-784.9 148.4,-1206.8 275.8,-878.1 1079.4,-1487 1167.1,-1487 38,-22.1 81.1,-30.9 120.8,-30.9 -6.1,-5 -12.2,-9.3 -19.3,-14.4 -73.4,-45.7 -165.5,-95.9 -248.8,-140 -693.9,-345.9 -1419.7,-568.67 -1979,-868.29 -654.8,-291.71 -1199.7,-511.19 -1545,-628.16 -23.8,41.86 -69.5,72.85 -125.8,89.89 -65,17.65 -147.2,25.84 -231,7.17"
       style="fill:#3a393a;fill-opacity:1;fill-rule:nonzero;stroke:none"
       transform="matrix(0.13333333,0,0,-0.13333333,0,4000)" />
    <path
       id="path11"
       d="m 16572.6,12161.5 c -54.2,54.4 -106.4,110.6 -156.9,168.3 0.9,-11.3 1.8,-22.8 2.5,-34.1 15.7,-412.5 -68.5,-802.2 -184.5,-1170 -226.8,-693.9 -570.7,-1321.68 -946,-1921.32 13.8,-12.11 27.9,-23.6 41.7,-36.12 111.5,-97.48 219,-199.78 320.3,-304.85 4.9,8.73 9.7,17.55 15.6,25.97 37.5,45.96 611.6,795 830,1682.02 186.1,628.5 115.9,1269.1 77.3,1590.1"
       style="fill:#747577;fill-opacity:1;fill-rule:nonzero;stroke:none"
       transform="matrix(0.13333333,0,0,-0.13333333,0,4000)" />
    <path
       id="path12"
       d="m 17576.3,10944.6 c 199,99.6 397.2,196.4 566.1,274.2 -525.7,159 -1017,433 -1423.6,802.1 97.7,-344 182.3,-898.4 70.5,-1476.7 200,102.8 493.7,253.3 787,400.4"
       style="fill:#525253;fill-opacity:1;fill-rule:nonzero;stroke:none"
       transform="matrix(0.13333333,0,0,-0.13333333,0,4000)" />
    <path
       id="path13"
       d="m 24775,13109.8 c -458.9,-474.3 -798.7,-900.7 -1094.8,-1229.4 -311.1,-306.7 -503.6,-470 -547.7,-516.9 -89.9,-84.9 -174.9,-162.6 -251,-232.8 -5,-37.9 -24.3,-73.2 -54.6,-103 -40.9,-40.3 -91.6,-67.3 -131.9,-84.4 -9.9,-4.5 -18.7,-7.7 -27,-10 -104.2,-96.4 -171,-166.5 -227.2,-153.9 -43.6,8.8 -67.9,98.7 -37,228.4 -40.3,10.5 -86.6,19.3 -139.5,25.3 -99.8,7.7 -223.4,16.6 -336.5,-12.1 -29.8,-4.4 -58.4,-10.9 -82.1,-23.1 l -38.7,-15.5 -19.8,-7.2 -2.8,-0.4 -1.1,-0.7 c -11.6,3.2 -24.9,6.8 -38.7,10.7 -222.9,-314.4 -516.5,-596.9 -727.9,-928.9 110.4,0 165.5,165.5 275.8,220.6 386.1,-496.39 606.7,-386.09 1158.3,-165.5 55.2,-220.59 220.6,-330.89 330.9,-386 441.3,-220.61 717.2,330.9 992.9,386 606.8,220.6 827.4,275.8 1158.3,882.6 148,221.9 494.1,146.6 806,172.4 -360.4,714.6 -463.2,1573.5 -510.8,2374.4 -148.7,-114.2 -322,-309.8 -453.1,-430.6"
       style="fill:#747577;fill-opacity:1;fill-rule:nonzero;stroke:none"
       transform="matrix(0.13333333,0,0,-0.13333333,0,4000)" />
    <path
       id="path14"
       d="m 18375.9,11157.2 c -166.8,-129.9 -405.9,-299 -650.8,-466 -461.2,-315.5 -943.9,-618.9 -985,-639.1 -19.4,-11.1 -43.2,-15.5 -67.4,-14.5 -94.8,-317.11 -221.3,-604.61 -339.1,-835.28 901.6,677.31 1850.2,1316.88 2843,1858.28 -269.6,2 -538.3,35.4 -800.7,96.6"
       style="fill:#747577;fill-opacity:1;fill-rule:nonzero;stroke:none"
       transform="matrix(0.13333333,0,0,-0.13333333,0,4000)" />
    <path
       id="path15"
       d="m 26846.2,10582 c -58,0 -427.8,265.4 -751.8,698.3 -166.8,223 -321.7,490.3 -415.3,788.7 -158.4,421.9 -198.1,878.7 -148.4,1206.8 20.4,135.2 52.9,246.1 85.5,329.9 -46.9,-7.2 -91.6,-9.9 -88.3,2.2 -39.2,7.2 -53.5,13.3 -72.2,16 -57.2,24.7 -137.9,-14.6 -227.6,-83.5 47.6,-800.9 150.4,-1659.8 510.8,-2374.4 -311.9,-25.8 -658,49.5 -806,-172.4 -330.9,-606.8 -551.5,-662 -1158.3,-882.6 -275.7,-55.1 -551.6,-606.61 -992.9,-386 -110.3,55.11 -275.7,165.41 -330.9,386 -551.6,-220.59 -772.2,-330.89 -1158.3,165.5 -110.3,-55.1 -165.4,-220.6 -275.8,-220.6 211.4,332 505,614.5 727.9,928.9 -74.9,20.5 -173,47.7 -193,53.4 v 0.5 l -0.5,0.5 -2.2,3.9 -4.4,8.2 c -20.4,48 -54.2,87.7 -96,124.8 -184.8,143.8 -508.6,161 -725.9,183.6 -14.9,1.1 -28.7,2.2 -43,3.3 -461.7,-198 -962.5,-304.5 -1465.5,-302.9 -12.5,0 -25,0.4 -37.5,0.5 -992.8,-541.4 -1941.4,-1180.97 -2843,-1858.28 -163.7,-320.54 -310.4,-531.09 -331.3,-556.74 -25.2,-34.68 -55.9,-61.47 -88.9,-81.47 138.4,-173.2 254.7,-349.48 338.2,-521.66 15.4,40.84 38.1,82.8 71.1,119.75 42.5,71.72 863.8,891.35 1879.8,1327.62 997.7,482.06 2088.2,553.88 2087.1,489.86 6.1,-43.1 -753.9,-177.1 -1548.2,-543.31 453.4,45.76 1022.6,-29.24 1565.3,-154.43 617.2,-139.54 1225.1,-292.43 1691.7,-322.69 466.7,-39.09 776.6,34.17 819.7,38.06 83.8,18.67 166,10.48 231,-7.17 56.3,-17.04 102,-48.03 125.8,-89.89 345.3,116.97 890.2,336.45 1545,628.16 559.3,299.62 1285.1,522.39 1979,868.29 83.3,44.1 175.4,94.3 248.8,140 7.1,5.1 13.2,9.4 19.3,14.4 -39.7,0 -82.8,8.8 -120.8,30.9 z m -1106.8,584.1 c 48.5,4 96.3,10.6 142.3,21.1 -46,-10.5 -93.8,-17.1 -142.3,-21.1"
       style="fill:#525253;fill-opacity:1;fill-rule:nonzero;stroke:none"
       transform="matrix(0.13333333,0,0,-0.13333333,0,4000)" />
    <path
       id="path16"
       d="m 15059.7,11048.7 c -55.1,496.5 -717,551.6 -992.8,717.1 -386.1,220.7 -661.8,661.9 -937.6,992.8 -110.3,-275.7 275.8,-606.7 55.1,-717 -330.9,-110.3 -937.6,0 -882.5,551.5 -496.5,-165.4 -1213.5,-275.7 -1654.7,110.4 -319.7,239.8 -986.97,209.5 -1603.84,269.4 -49.05,-660.9 -77.68,-1289.7 -101.27,-1386 7.18,-3.9 14.36,-7.7 21.03,-10.5 71.72,-38.5 42.48,-25.8 182.54,-40.8 403.14,-33.6 793.15,-82.7 1184.14,-119.6 205.3,-32 353.6,4.4 654.3,-102.1 115.7,-49.1 183.6,-89.4 226.1,-91 45.8,-15.4 181.4,-15.4 268,-23.7 392.3,-24.8 785.5,-43.6 1178.8,-57.9 786.5,-28.2 1577.5,-40.9 2362.4,-35.8 l 0.5,-31 0.2,-18.3 c 13.3,6.1 26.5,5.8 39.6,-7.5"
       style="fill:#525253;fill-opacity:1;fill-rule:nonzero;stroke:none"
       transform="matrix(0.13333333,0,0,-0.13333333,0,4000)" />
    <path
       id="path17"
       d="m 15975.1,12725.8 c -23.5,139.8 -65.6,251.9 -108,336.8 -663.6,326.6 -1359.8,618 -2063.4,849.2 -92.1,28.7 -184.3,60.1 -277.4,86.1 -69.5,20.4 -145.6,43.6 -168.3,49.5 1.1,0 1.7,-0.4 2.2,-1.6 -1.1,0.6 -2.2,1.2 -3.3,1.2 -17.6,-2.2 -102.5,-75.1 -277.4,-117.6 -238.3,-20.9 -301.1,43.6 -397.2,57.5 -379.9,104.2 -761.7,206.2 -1143.4,304.9 -382.2,99.4 -765,196.4 -1147.8,289.6 l -574.19,137.3 -140.67,31.5 c -3.8,-0.5 -7.69,-1.1 -12.11,-0.5 -40.84,-28.8 -111.43,-103.2 -295.09,-153.9 -8.83,0.6 -16.52,0.6 -25.35,1 -84.45,-318.2 -196.39,-748.4 -264.73,-1187 -13.03,-143.6 -24.83,-291 -35.6,-436.9 616.87,-59.9 1284.14,-29.6 1603.84,-269.4 441.2,-386.1 1158.2,-275.8 1654.7,-110.4 -55.1,-551.5 551.6,-661.8 882.5,-551.5 220.7,110.3 -165.4,441.3 -55.1,717 275.8,-330.9 551.5,-772.1 937.6,-992.8 275.8,-165.5 937.7,-220.6 992.8,-717.1 -13.1,13.3 -26.3,13.6 -39.6,7.5 l 2,-189.1 c 0,0.5 -45.3,-2.9 -132.5,-8.6 -226.1,-342.2 -149.6,-785.5 -358.5,-1133.39 180.3,-97.07 363.3,-210.04 539.5,-342.81 112.4,300.53 394.1,1007.7 699.7,1891.3 192.5,590.8 272.6,1096.8 204.8,1452.2"
       style="fill:#747577;fill-opacity:1;fill-rule:nonzero;stroke:none"
       transform="matrix(0.13333333,0,0,-0.13333333,0,4000)" />
    <path
       id="path18"
       d="m 14371.9,10830.2 c -7.8,-8.8 -16.1,-18.2 -24.9,-28.6 -9.4,-11.1 -18.8,-22.7 -28.7,-36 -40.8,-73.3 -161,-221.2 -317.2,-304.9 -181.4,-104.9 -388.7,-99.3 -553.2,-209.1 -34.2,-18.3 -70,-36.4 -105.3,-54.6 261,-75.1 715.3,-217.02 1188.5,-471.89 208.9,347.89 132.4,791.19 358.5,1133.39 -108.8,-7.1 -282.9,-17.5 -517.7,-28.3"
       style="fill:#636465;fill-opacity:1;fill-rule:nonzero;stroke:none"
       transform="matrix(0.13333333,0,0,-0.13333333,0,4000)" />
    <path
       id="path19"
       d="m 7785.7,13633.5 c -8.61,-22.3 -17.03,-44.9 -25.04,-67.5 -126.92,-344.1 -175.96,-706.5 -126.92,-1046.4 25.96,-169.3 82.8,-331.4 163.35,-478.7 42.48,-72.3 87.63,-143.5 141.7,-205.7 19.91,-24.8 41.97,-48 63.51,-69.5 186.44,-3.9 354.1,-10.5 545.98,-23.7 32.93,222.4 82.81,708.1 168.58,1274.3 -427.25,76.1 -788.54,235.7 -931.16,617.2"
       style="fill:#d46013;fill-opacity:1;fill-rule:nonzero;stroke:none"
       transform="matrix(0.13333333,0,0,-0.13333333,0,4000)" />
    <path
       id="path20"
       d="m 9174.39,14602.9 c -382.83,10.5 -598,-22 -848.98,-186.9 -246.35,-169.6 -417.5,-463 -539.71,-782.5 142.62,-381.5 503.91,-541.1 931.16,-617.2 22.16,145.4 46.38,295.8 73.57,448.7 105.89,430.8 254.26,837.3 383.96,1137.9"
       style="fill:#f46f16;fill-opacity:1;fill-rule:nonzero;stroke:none"
       transform="matrix(0.13333333,0,0,-0.13333333,0,4000)" />
    <path
       id="path21"
       d="m 1691.96,7487.55 c 4.62,-82.9 9.96,-165.91 16.32,-248.72 55.1,-590.61 124.06,-1242.57 340.86,-1567.01 206.24,-121.9 418.02,-168.18 547.72,-190.24 -118.11,151.15 -169.31,336.97 -200.19,492.01 -41.96,243.79 -40.83,471.07 -30.37,678.43 5.85,84.24 13.13,164.89 21.14,242.37 -260.93,136.46 -508.93,338.6 -695.48,593.16"
       style="fill:#d46013;fill-opacity:1;fill-rule:nonzero;stroke:none"
       transform="matrix(0.13333333,0,0,-0.13333333,0,4000)" />
    <path
       id="path22"
       d="m 2568.75,7881.97 c -18.27,25.96 -31.51,59.62 -39.72,98.71 -16.62,80.65 -11.59,185.41 21.96,294.08 8.82,27.5 42.58,139.54 112.05,315.51 11.59,30.27 24.83,62.29 39.09,95.94 -133.38,-20.94 -407.04,-65.67 -736.82,-154.42 -110.81,-7.7 -197.52,-114.2 -286.79,-68.96 72.13,-49.15 -17.75,-206.85 3.29,-332.54 -7.29,-204.7 -1.95,-422.95 10.15,-642.74 186.55,-254.56 434.55,-456.7 695.48,-593.16 45.45,440.49 119.02,770.26 169.71,948.4 3.8,14.36 7.69,27.07 11.6,39.18"
       style="fill:#f46f16;fill-opacity:1;fill-rule:nonzero;stroke:none"
       transform="matrix(0.13333333,0,0,-0.13333333,0,4000)" />
    <path
       id="path23"
       d="m 16115.4,7374.07 c -119.2,94.81 -251,237.12 -404.9,395.96 -188.7,206.35 -386.7,364.56 -709.4,499.19 -300,148.98 -617.1,309.46 -938.2,462.24 -624.4,310.59 -1327,494.67 -1852.8,576.34 -153.8,24.32 -290.6,34.27 -409.2,35.92 430.3,-144.47 937.7,-418.64 1336,-796.45 431.2,-393.79 815.7,-798.68 1162.1,-1027.7 279.7,-192.39 516.2,-265.96 589.3,-304.34 h 302.7 c -2.2,2.06 -3.4,4.11 -3.4,6.57 -7.7,20.93 377.8,130.11 927.8,152.27"
       style="fill:#525253;fill-opacity:1;fill-rule:nonzero;stroke:none"
       transform="matrix(0.13333333,0,0,-0.13333333,0,4000)" />
    <path
       id="path24"
       d="m 12963.8,6856.73 c -55.1,110.4 -330.9,110.4 -496.4,220.7 -55.1,55.1 -110.3,275.71 -110.3,275.71 -441.3,220.71 -937.7,-110.2 -1379,220.71 55.2,0 55.2,110.3 55.2,110.3 -2040.84,-165.51 -4026.49,-441.21 -6067.34,-772.22 -275.71,-55.2 -496.42,110.3 -717.02,165.5 -496.42,165.51 -937.63,-496.41 -1489.24,-330.91 -75.63,20.52 -152.17,47.2 -228.31,79.53 -1.74,-57.77 -2.97,-116.87 -3.48,-177.83 11.08,-369.07 23.08,-950.95 398.22,-1147.35 382.72,-138.41 947.57,195.78 1463.27,320.45 2113.71,652.48 4296.27,1162.74 4498.72,1151.14 172.58,13.75 331.42,4.42 445.61,-40.21 113.08,-40.84 177.11,-94.41 172.7,-151.66 -4.42,-50.79 -60.13,-96.55 -145.09,-130.21 9.85,-1.13 19.91,-1.75 29.75,-2.16 10.47,-0.61 20.43,-1.23 30.89,-1.74 309.46,-18.16 722.52,27.6 1150.02,88.25 425.3,58.99 875.3,104.34 1235,61.87 360.7,-34.78 607.3,-147.97 639.8,-157.81 64.6,-33.66 112,-85.58 133.5,-139.55 21.5,-54.58 17.7,-111.43 -12.7,-159.96 -30.4,-48.54 -80.5,-80.55 -133.5,-95.43 -52.9,-14.37 -108.6,-10.98 -158.3,16.01 -28.1,7.18 -212.3,107.02 -519.5,157.19 -267.5,49.67 -626,48.54 -1001.1,32.01 1.6,0 2.1,-0.51 3.9,-0.51 366.2,-102.6 829.4,-298.48 1288.4,-506.98 226.1,-101.47 464.4,-217.83 662.4,-295.61 233.4,-81.06 443,-178.74 616.7,-249.34 349.2,-147.23 570.9,-146.73 601.2,-144.47 22,-3.9 43.1,-6.66 63.4,-10.46 19.3,8.2 38.1,16.21 56.9,24 -613.9,252.52 -739.1,1097.9 -1084.3,1591.04"
       style="fill:#525253;fill-opacity:1;fill-rule:nonzero;stroke:none"
       transform="matrix(0.13333333,0,0,-0.13333333,0,4000)" />
    <path
       id="path25"
       d="m 18093.4,6305.21 c -56.3,112.56 -123.4,232.2 -202.1,348.15 -184.6,131.95 -400.9,245.02 -636.4,321.87 -954.5,316.55 -1997.7,181.62 -2063.9,240 h -302.7 c 16.2,-8.41 24.6,-15.18 23.5,-21.03 0,-13.75 -102.8,-18.16 -265.9,21.03 h -27.4 27.4 c -117.2,28.32 -265.3,78.81 -429.7,165.41 -393.2,199.16 -829.5,591.32 -1268.5,941.52 -430.3,358 -941,581.38 -1350.3,683.98 -68.4,18.27 -132.4,31.4 -191.9,40.22 -5.1,-25.85 -13.3,-49.66 -25.5,-69.47 -22.5,-38.57 -56.7,-63.41 -95.9,-65.04 -40.8,-12.73 -573.1,20.42 -1053,137.8 -68.9,16.01 -136.7,32.01 -203.4,47.5 6.5,-12.21 12.6,-25.34 16.5,-40.32 11,-45.15 7.7,-99.22 -13.9,-152.68 -21.4,-53.56 -56.19,-95.43 -94.77,-120.26 -38.58,-25.44 -82.19,-32.63 -119.64,-18.26 -38.18,7.8 -536.23,261.44 -1043.1,345.27 -253.75,46.89 -499.19,18.16 -657.41,-71.1 -158.33,-88.25 -232.82,-207.99 -263.7,-190.85 -17.65,5.53 -2.26,135.64 129.59,281.34 -9.95,0 -20.31,0.41 -30.88,0.41 -160.48,4.51 -395.45,19.91 -680.59,44.23 -545.05,48.53 -1269.77,130.71 -1989.56,86.09 -704.29,-84.97 -1505.76,-126.42 -1937.12,-350.31 -194.14,-84.34 -220.6,-300.63 -299.51,-464.39 -56.84,-160.07 -87.11,-268.63 -95.43,-294.07 -31.39,-102.61 -80.54,-190.86 -136.25,-249.75 -55.11,-59.71 -117.49,-88.86 -172.59,-73.98 -9.95,2.77 -19.39,7.18 -28.12,12.61 -19.7,-190.33 -66.38,-549.15 -79.83,-1015.08 76.14,-32.33 152.68,-59.01 228.31,-79.53 551.61,-165.5 992.82,496.42 1489.24,330.91 220.6,-55.2 441.31,-220.7 717.02,-165.5 2040.85,331.01 4026.5,606.71 6067.34,772.22 0,0 0,-110.3 -55.2,-110.3 441.3,-330.91 937.7,0 1379,-220.71 0,0 55.2,-220.61 110.3,-275.71 165.5,-110.3 441.3,-110.3 496.4,-220.7 345.2,-493.14 470.4,-1338.52 1084.3,-1591.04 22.5,9.45 44.8,18.78 66.1,27.82 355.2,147.85 586.3,230.55 641.5,251.48 222.2,80.55 432.4,127.96 590.7,140.67 158.9,12.63 265.9,-8.3 282.4,-63.4 16.6,-54.69 -57.4,-132.46 -190.2,-215.68 -132.4,-83.32 -323.3,-173.2 -541.1,-252.11 -53.6,-20.93 -281.3,-99.22 -629.4,-237.63 -173.7,-69.57 -377.3,-155.56 -602.3,-258.17 -111.4,-53.55 -228.9,-109.28 -348.7,-173.2 -37.9,-18.77 -74.9,-39.81 -112.4,-61.25 2.1,-1.64 4.4,-3.28 6.6,-5.44 40.8,-35.4 54,-70.19 71.2,-124.16 -6.6,-4.1 -4,-29.24 6.7,-70.49 530.2,-468.81 1101.1,-862.82 1723.7,-1060.95 997.7,433.3 1869.4,1235.59 2639.3,2038.9 330.9,275.81 606.7,661.81 441.2,1103.13"
       style="fill:#747577;fill-opacity:1;fill-rule:nonzero;stroke:none"
       transform="matrix(0.13333333,0,0,-0.13333333,0,4000)" />
    <path
       id="path26"
       d="m 18938.3,5346.45 c -54.6,-16.52 -114.2,0.51 -165,40.33 -51.2,40.21 -93.2,99.72 -117.4,171.45 -15.5,34.17 -82.3,306.69 -295.1,622.21 -107.7,165.81 -270.1,330.4 -469.5,472.92 78.7,-115.95 145.8,-235.59 202.1,-348.15 165.5,-441.32 -110.3,-827.32 -441.2,-1103.13 -769.9,-803.31 -1641.6,-1605.6 -2639.3,-2038.9 -622.6,198.13 -1193.5,592.14 -1723.7,1060.95 53.8,-206.03 317.9,-823.83 744.7,-1348.97 15.8,-19.4 31.7,-38.59 47.8,-57.67 262,-331.42 580.2,-595.11 795.4,-853.28 103.1,-119.64 185.3,-214.03 243.2,-271.4 50.8,2.16 81,-0.51 89.3,12.73 58.5,30.27 149.5,103.11 221.3,154.42 303.9,225.02 594,460.5 870.4,692.81 552.6,465.42 1047.3,922.74 1457.7,1325.88 838.4,795.41 1256.5,1439.69 1179.3,1467.8"
       style="fill:#525253;fill-opacity:1;fill-rule:nonzero;stroke:none"
       transform="matrix(0.13333333,0,0,-0.13333333,0,4000)" />
    <path
       id="path27"
       d="m 21889.2,13739.2 c 80.5,-215.7 126.9,-412.6 155,-582.5 77.2,128.6 144.5,261.4 200.8,396 -42,208.6 -107.6,505.8 -257.6,832.9 -116.7,278 -298.9,576.2 -534.3,860.8 -10.9,-189.6 -41,-374 -88.2,-551.5 240.9,-318.9 420.1,-650.6 524.3,-955.7"
       style="fill:#525253;fill-opacity:1;fill-rule:nonzero;stroke:none"
       transform="matrix(0.13333333,0,0,-0.13333333,0,4000)" />
    <path
       id="path28"
       d="m 18700.1,12648.3 c -1465.2,0 -2662.9,1142.8 -2752,2585.6 -51.4,-446.4 -17.9,-924.8 136.9,-1406.5 352.9,-1192.5 1596.8,-2285.6 3129.1,-2280.7 1175.4,-3.9 2180.4,638.7 2744.5,1476.5 -42.9,185.9 -108,412.6 -219.4,655.9 -103.4,245.8 -258.4,507.5 -455.4,761.3 -391.5,-1046.7 -1400.4,-1792.1 -2583.7,-1792.1"
       style="fill:#525253;fill-opacity:1;fill-rule:nonzero;stroke:none"
       transform="matrix(0.13333333,0,0,-0.13333333,0,4000)" />
    <path
       id="path29"
       d="m 21785,16933.3 c -579.8,738.6 -1303.4,1056.8 -1789.4,1193.6 -495.9,131.8 -781.5,120.8 -781.5,131.3 0,-9.5 -234.2,-1.7 -645.4,-97.6 43.5,2.1 87.3,3.4 131.4,3.4 438.4,0 851.9,-103.9 1219.8,-286 -114.3,-40.5 -223.9,-94.1 -325.9,-155.2 344,-68.8 678,-176.2 998.8,-313.2 184.4,-174.4 344.5,-373.6 475.2,-592.7 -243.1,67.5 -486.8,133.6 -756.8,133.6 357.6,-250.4 715.1,-501.1 1042.9,-796.6 49.5,-176.4 82.5,-359.8 96,-548.6 324.6,-379 560.8,-789 687.3,-1159.5 102.6,-275.2 150.6,-521.3 173.8,-717.7 11.6,33.2 21.9,66.3 32,99.3 387.6,1206.9 17,2392.7 -558.2,3105.9"
       style="fill:#525253;fill-opacity:1;fill-rule:nonzero;stroke:none"
       transform="matrix(0.13333333,0,0,-0.13333333,0,4000)" />
    <path
       id="path30"
       d="m 21069.4,16816.5 c -130.3,218.8 -290.1,417.8 -473.8,591.9 -321.7,137.6 -656.7,245.4 -1001.6,314.4 102.5,61.4 212.6,115.3 327.5,155.8 -368.2,182.4 -782.6,285.4 -1221.4,285.4 -44.1,0 -87.9,-1.3 -131.4,-3.4 -43.7,-10.1 -88.7,-21 -136.2,-33.7 -486,-136.8 -1209.6,-455 -1789.3,-1193.6 -12.1,-15.4 -24.3,-30.9 -36.4,-46.8 738,212.3 2335.9,378.9 3757.8,-382.9 426.2,-238.5 791.9,-555.7 1085.5,-898.3 -13.4,188.8 -46.5,372.2 -96,548.6 -327.8,295.5 -685.3,546.2 -1042.9,796.6 270.5,0 514.6,-66.4 758.2,-134"
       style="fill:#747577;fill-opacity:1;fill-rule:nonzero;stroke:none"
       transform="matrix(0.13333333,0,0,-0.13333333,0,4000)" />
    <path
       id="path31"
       d="m 20223.9,16245.5 c -837.2,458.9 -1848.2,465 -2584,425.3 -750.7,-44.2 -1182.7,-289 -1223.4,-325.4 -73.9,-44.7 -139,-84.4 -199.2,-118.6 -15.3,-35.3 -30.2,-71.8 -45.2,-108.1 619.4,233.8 2387.3,512.4 3944.3,-322.2 468.3,-262 863.8,-618.8 1170.5,-999.9 7.7,1.6 14.8,2.7 23.1,4.4 v -31 -2.7 c 18.9,-24 36.7,-48.2 54.9,-72.4 47.2,177.5 77.3,361.9 88.2,551.5 -320.1,387 -738.8,748.7 -1229.2,999.1"
       style="fill:#747577;fill-opacity:1;fill-rule:nonzero;stroke:none"
       transform="matrix(0.13333333,0,0,-0.13333333,0,4000)" />
    <path
       id="path32"
       d="m 16759.5,15870.5 c -359,-88.8 -564.2,-207.4 -591.2,-231.7 -62.9,-37.5 -119.1,-72.3 -171.6,-102.6 -14.4,-69.9 -26,-141.1 -36.2,-212.9 255.7,65.2 514,112.5 774,144.5 6,160.7 15.6,295.9 25,402.7"
       style="fill:#636465;fill-opacity:1;fill-rule:nonzero;stroke:none"
       transform="matrix(0.13333333,0,0,-0.13333333,0,4000)" />
    <path
       id="path33"
       d="m 21233.9,14504.2 c -95.4,-93.7 -278.5,-294.5 -550.5,-568.1 -100.9,-98.8 -214,-206.3 -349.1,-317.2 -134.6,-81.6 -279,-291.2 -623.8,-242.7 -427.5,83.9 -816.9,246 -1255.9,433 -431.9,190.8 -818.6,388.4 -1156.7,575.3 -84.3,46.9 -166,92.6 -244.3,137.9 l -115.9,67.8 -56.3,33.7 c -62.8,32 -120.8,137.3 -111.3,143.4 -51.9,217.9 -36.4,351.9 -40.8,500.9 1,70.4 2.9,136.8 5.2,199.6 -260,-32 -518.3,-79.3 -774,-144.5 -4.2,-29.8 -8.9,-59.4 -12.4,-89.4 89.1,-1442.8 1286.8,-2585.6 2752,-2585.6 1183.3,0 2192.2,745.4 2583.7,1792.1 -16.5,21.4 -32.8,42.7 -49.9,63.8"
       style="fill:#747577;fill-opacity:1;fill-rule:nonzero;stroke:none"
       transform="matrix(0.13333333,0,0,-0.13333333,0,4000)" />
    <path
       id="path34"
       d="m 17639.1,23240.3 c 238.7,-197 559.9,-344.9 830.4,-593.2 238.3,-217.6 438.6,-501.8 693.9,-748.7 236.5,-230.1 456.1,-491.5 701.5,-739.8 234.9,-237.7 487.9,-466.5 726.5,-714.7 235.1,-243.4 594.2,-372.7 827.9,-620.7 234.4,-249.4 427.7,-536.5 655.9,-783.6 236.1,-254.3 486.3,-488.5 709.6,-733.4 237.4,-260.3 358.1,-612.6 576.1,-854.6 242.9,-269 609.7,-399.9 819.9,-634.5 255.8,-287.2 440.5,-583.7 633.4,-802.5 73.6,-82.8 139.6,-162.8 200,-239.2 -94.6,-79.8 -186.4,-161.1 -272.9,-241.4 -3355.2,4201 -6815.9,7371.2 -7804.9,8249.9 l 168.9,-27.6 c 157.7,-150.1 321.4,-341.3 533.8,-516"
       style="fill:#c5c0be;fill-opacity:1;fill-rule:nonzero;stroke:none"
       transform="matrix(0.13333333,0,0,-0.13333333,0,4000)" />
    <path
       id="path35"
       d="m 25117.3,15750.1 c 197.4,181.5 466.3,369.8 720.9,459.7 58.1,20.8 111.7,-11.1 149.1,-53.6 191.5,-221.5 -283.9,-410.3 -408.5,-486 -145.1,-87.8 -290.3,-184.4 -423.4,-288.9 -102.6,-79.3 -188.8,-179.7 -319.1,-207.5 -35.4,-7.5 -70.5,16.8 -71.8,54.7 -8.3,229.7 199.2,380 352.8,521.6"
       style="fill:#747577;fill-opacity:1;fill-rule:nonzero;stroke:none"
       transform="matrix(0.13333333,0,0,-0.13333333,0,4000)" />
    <path
       id="path36"
       d="m 24180.8,16817.1 c -210.2,234.6 -577,365.5 -819.9,634.5 -218,242 -338.7,594.3 -576.1,854.6 -223.3,244.9 -473.5,479.1 -709.6,733.4 -228.2,247.1 -421.5,534.2 -655.9,783.6 -233.7,248 -592.8,377.3 -827.9,620.7 -238.6,248.2 -491.6,477 -726.5,714.7 -245.4,248.3 -465,509.7 -701.5,739.8 -255.3,246.9 -455.6,531.1 -693.9,748.7 -270.5,248.3 -591.7,396.2 -830.4,593.2 -212.4,174.7 -376.1,365.9 -533.8,516 l 164.9,-27.7 c 3834,-3077.8 5896.1,-5364.3 7947.6,-7786.6 -68.4,-53.2 -137.3,-109.5 -203.6,-166.6 -60.4,76.4 -126.4,156.4 -200,239.2 -192.9,218.8 -377.6,515.3 -633.4,802.5"
       style="fill:#e9e9e9;fill-opacity:1;fill-rule:nonzero;stroke:none"
       transform="matrix(0.13333333,0,0,-0.13333333,0,4000)" />
    <path
       id="path37"
       d="m 26119.9,13752.1 -20.3,-2 c -36.7,50.5 -73.4,100.9 -111.1,151 l 168.5,42.7 -37.1,-191.7"
       style="fill:#747577;fill-opacity:1;fill-rule:nonzero;stroke:none"
       transform="matrix(0.13333333,0,0,-0.13333333,0,4000)" />
    <path
       id="path38"
       d="m 26823.7,12756.4 c -2,-0.2 -3,0.2 -4.3,0.7 -73.2,102 -147.2,203.8 -221,306.7 l 277.8,-20.9 -52.5,-286.5"
       style="fill:#747577;fill-opacity:1;fill-rule:nonzero;stroke:none"
       transform="matrix(0.13333333,0,0,-0.13333333,0,4000)" />
    <path
       id="path39"
       d="m 26057.7,14924.2 c 36.7,-46.8 73,-92.7 108.5,-139.1 -72,-34 -167.2,-78.6 -262.5,-123.1 -98.2,-46.3 -195.4,-92.8 -267.7,-128 -35.6,-16.2 -65,-31.1 -86.3,-41.7 -5.2,7.8 -11.1,15.3 -17.1,22.7 59,53.1 231.8,187.5 423.3,332.2 33.2,25.6 67.3,51.7 101.8,77"
       style="fill:#747577;fill-opacity:1;fill-rule:nonzero;stroke:none"
       transform="matrix(0.13333333,0,0,-0.13333333,0,4000)" />
    <path
       id="path40"
       d="m 26552.2,13411.9 c -4.9,-1.8 -8.6,-3.7 -12.3,-5.8 -15.2,-11 -32.5,-14.5 -52,-8.8 l -0.7,-0.3 c -1.1,0.3 -2.4,0.7 -3.5,0.9 -1.5,1.3 -2.4,0.8 -3.9,1.9 -3.7,-0.1 -8.3,1.2 -13.6,2.2 -25,8.8 -39.1,26.2 -54.9,46.6 -37.6,48.2 -29.5,127.8 -25.2,184 9.3,114.8 41.5,262.3 142.1,329.1 63.6,41 131.5,4.3 159.8,-57.5 43.5,-95.1 -15.3,-225.1 -41,-319.9 -15.4,-55.4 -26.1,-110.4 -69.6,-153.1 -8.2,-6.4 -17,-13 -25.2,-19.3"
       style="fill:#747577;fill-opacity:1;fill-rule:nonzero;stroke:none"
       transform="matrix(0.13333333,0,0,-0.13333333,0,4000)" />
    <path
       id="path41"
       d="m 26596.3,14317.3 c -63.8,-81.7 -141.5,-115.9 -242.9,-126.1 -26.4,-2.7 -58.3,-9.4 -96.9,-12.6 -37,-4.7 -71.5,5.7 -106.6,15.7 -118.3,35.6 -108.8,221.7 -29.5,288.6 68.3,57.1 129.7,80.4 215.8,92.1 104.4,15 203.6,9.5 263,-75.9 34.6,-49.9 35.4,-133.3 -2.9,-181.8"
       style="fill:#747577;fill-opacity:1;fill-rule:nonzero;stroke:none"
       transform="matrix(0.13333333,0,0,-0.13333333,0,4000)" />
    <path
       id="path42"
       d="m 27493.8,11821.5 c -3.2,4.1 -6.7,8.8 -10.3,13.6 l 13.2,2.4 -2.9,-16"
       style="fill:#e9e9e9;fill-opacity:1;fill-rule:nonzero;stroke:none"
       transform="matrix(0.13333333,0,0,-0.13333333,0,4000)" />
    <path
       id="path43"
       d="m 25879.6,14995.8 c -7.1,-6.6 -14,-13.3 -21.1,-18 -8.6,-5.6 -17,-11.2 -25.2,-15.6 -0.7,-0.4 -1.6,-0.8 -2.4,-1.3 -9.2,-4 -17.8,-7.6 -27.9,-12.1 -1.5,-0.8 -3.1,-1.6 -5.6,-2.1 -27.7,-11 -56.7,-18 -88,-13.6 -45.5,6.2 -82.5,21 -110.2,60.1 -38.2,54.6 -37.1,122.5 -17.8,183 23.3,76.3 91.4,151.5 173,162.6 30,8.5 60.4,7.5 90.7,-2.2 21.7,-8.4 41.1,-21.1 56.9,-37.7 5.1,-5.9 10.1,-11.9 14.5,-18.2 8.4,-15.7 16.9,-31.4 24.2,-46.7 16.1,-44.3 16.4,-98.2 -1.6,-141.6 -14.8,-36.9 -30.5,-68.4 -59.5,-96.6"
       style="fill:#747577;fill-opacity:1;fill-rule:nonzero;stroke:none"
       transform="matrix(0.13333333,0,0,-0.13333333,0,4000)" />
    <path
       id="path44"
       d="m 26781.5,13475.7 c 14,22 24,42.7 41.9,63 -1.8,-1.9 -4.1,-3.2 -5.9,-5.1 16.3,25 36.8,45.8 62.2,61.4 46.1,26.8 110.5,39.3 162.8,38.6 64.8,-0.7 120.6,-15 160.3,-70.7 34.9,-50.6 33.4,-110.2 16.5,-166.4 -41.4,-140.9 -204.9,-158.6 -324.6,-127.7 -33.5,8.9 -60.2,24.4 -80.7,53.8 -6.5,11.9 -12.9,23.8 -19.4,35.8 2.1,-5.6 4.1,-9.4 4.2,-11.3 -2.5,2.6 -7,12.8 -14.7,28.8 -9,36.5 -26.4,61.8 -2.6,99.8"
       style="fill:#747577;fill-opacity:1;fill-rule:nonzero;stroke:none"
       transform="matrix(0.13333333,0,0,-0.13333333,0,4000)" />
    <path
       id="path45"
       d="m 28422.1,11518 -86.7,-76.6 -198.1,-153.9 153.8,451.9 c 49.6,-83.1 93.6,-157.7 131,-221.4"
       style="fill:#747577;fill-opacity:1;fill-rule:nonzero;stroke:none"
       transform="matrix(0.13333333,0,0,-0.13333333,0,4000)" />
    <path
       id="path46"
       d="m 26877.7,13850.2 -96.2,-12.3 30.1,101.1 c 22.6,-29.3 44.8,-59.8 66.1,-88.8"
       style="fill:#e9e9e9;fill-opacity:1;fill-rule:nonzero;stroke:none"
       transform="matrix(0.13333333,0,0,-0.13333333,0,4000)" />
    <path
       id="path47"
       d="m 27628.4,12776.6 c 0.4,1.2 0,2 0.3,3 19.4,-29 38.6,-57.2 56.8,-86 -3.5,-7.6 -5.6,-16.4 -7.9,-24.4 l -4.9,-24.8 -75.8,10.2 c 19,38.2 28.5,82.9 31.5,122"
       style="fill:#e9e9e9;fill-opacity:1;fill-rule:nonzero;stroke:none"
       transform="matrix(0.13333333,0,0,-0.13333333,0,4000)" />
    <path
       id="path48"
       d="m 27303,12830.7 c 0.3,3 1.7,5.7 2.1,8.7 -0.4,0.8 0.7,2.4 0.7,2.4 10.5,73.1 63.6,144.1 135.7,163.8 76.3,20.8 138.8,-23.6 167.8,-91.8 18.1,-40.4 22.6,-90.1 19.4,-134.2 -0.3,-1 0.1,-1.8 -0.3,-3 -3,-39.1 -12.5,-83.8 -31.5,-122 -12.1,-25.8 -27.9,-47.8 -48.8,-64.8 -20.6,-20.7 -45,-35.8 -73.2,-44.3 -40.2,-11 -83.6,-3.6 -117,22.8 -60.6,48.2 -70.7,125.6 -66.5,198.2 0.7,21.7 5.9,42.7 11.6,64.2"
       style="fill:#747577;fill-opacity:1;fill-rule:nonzero;stroke:none"
       transform="matrix(0.13333333,0,0,-0.13333333,0,4000)" />
    <path
       id="path49"
       d="m 16430.8,23969.1 c 19.1,43.1 65.3,68 111.7,60.3 l 725.6,-116.8 c 18,-3 35.2,-10.1 49.2,-21.7 3882.4,-3083.6 5967.3,-5373.2 8044.9,-7802.7 219.5,156.8 438,279.4 630.1,329.9 59.8,15.9 107.1,27.9 324.4,-421.7 l 25.9,-53.4 -41.8,-41.9 c -169.5,-173.1 -355.8,-368 -414,-435 29.6,-35.2 59.5,-71.1 88.3,-106.6 50.8,-62.2 101.2,-123.8 150.5,-184.9 l 63.4,-62.2 c 11.6,-12.9 19.8,-27.9 22.3,-44.8 50,-60.8 98.1,-121.5 146.3,-182.3 51.6,-3.1 100.1,-30.8 129.7,-76.5 9.5,-14.2 40.7,-64.9 71.7,-134.8 l 274.2,-260.9 c 46.4,-43.5 63.7,-109.3 46.4,-169.7 l -8.1,-24.6 c 60.5,-80.1 119.4,-159.2 176.4,-236.4 36.7,-19.7 72.9,-38.7 109.1,-57.8 39.7,-23.9 78.8,-48.1 117.5,-71.5 l 904.8,-1361.7 c -5.2,-11.4 -10.3,-23.8 -15.6,-35.4 l 186.4,-301.3 c 22,-35.4 29.8,-76.5 23.3,-116.5 102,-165.8 185,-304 247.5,-411.1 10.5,-17.5 16.4,-28.7 20.4,-34.2 6,-9.5 10.8,-18.4 14.6,-29 12.2,-40.5 0,-83.7 -31.4,-111.2 l -153.7,-135.8 c -2.4,-1.3 -3.4,-2.8 -4.8,-3.6 l -445.6,-352.9 c -11.6,-9.1 -25.5,-15.6 -38.9,-19.1 -13.7,-3.4 -26.8,-3.7 -40.2,-2.2 -10.2,1.2 -18.2,3.6 -27.1,7.5 -1.2,0.4 -1.9,-0.1 -2.6,-0.4 -63.9,-8.5 -128.2,21.6 -162.3,76.3 l -290,447 c 0,0 0,0 -0.3,0.8 -10,-12.1 -20.1,-23.4 -30,-35.4 -544.1,1059.7 -1305,1952.4 -2081.9,2831.7 19,22 38.2,43.7 58.7,64.4 0.3,1.3 -0.5,2.7 -0.9,3.4 -13.3,17.9 -26.4,34.9 -39.9,52.7 -85,113.2 -172,226.3 -258.1,338 -13.4,17.7 -27.2,34.4 -40.6,52.3 l -558.5,-464.8 -515,480.8 52.6,61.1 c 20.1,23.4 230.3,263.8 522.2,550.3 -3962.8,4914.3 -8065.9,8404 -8108.7,8440.6 -36.2,29.7 -48.5,81 -28.1,123.7 z M 26336.2,14575 c -86.1,-11.7 -147.5,-35 -215.8,-92.1 -79.3,-66.9 -88.8,-253 29.5,-288.6 35.1,-10 69.6,-20.4 106.6,-15.7 38.6,3.2 70.5,9.9 96.9,12.6 101.4,10.2 179.1,44.4 242.9,126.1 38.3,48.5 37.5,131.9 2.9,181.8 -59.4,85.4 -158.6,90.9 -263,75.9 z m -419.7,705.7 c -4.4,6.3 -9.4,12.3 -14.5,18.2 -15.8,16.6 -35.2,29.3 -56.9,37.7 -30.3,9.7 -60.7,10.7 -90.7,2.2 -81.6,-11.1 -149.7,-86.3 -173,-162.6 -19.3,-60.5 -20.4,-128.4 17.8,-183 27.7,-39.1 64.7,-53.9 110.2,-60.1 31.3,-4.4 60.3,2.6 88,13.6 2.5,0.5 4.1,1.3 5.6,2.1 10.1,4.5 18.7,8.1 27.9,12.1 0.8,0.5 1.7,0.9 2.4,1.3 8.2,4.4 16.6,10 25.2,15.6 7.1,4.7 14,11.4 21.1,18 29,28.2 44.7,59.7 59.5,96.6 18,43.4 17.7,97.3 1.6,141.6 -7.3,15.3 -15.8,31 -24.2,46.7 z m 865,-1442.8 96.2,12.3 c -21.3,29 -43.5,59.5 -66.1,88.8 z m 1553.9,-2396.5 86.7,76.6 c -37.4,63.7 -81.4,138.3 -131,221.4 l -153.8,-451.9 z m -482.6,426 c 40.6,-14.7 86.6,-5.3 122.6,17.1 85.2,38.1 124.9,153.9 133.2,240.3 4.8,47.9 0.8,92.9 -16.1,138.7 -3.5,9.7 -7.1,18.4 -11.5,26.6 -2.5,6.4 -4.1,13.2 -6.7,19.5 -22.9,65.8 -90.5,105.4 -158.8,86 -68,-18.4 -131.2,-93.9 -131.7,-166.4 -0.5,-8 -1.6,-18.2 -1.9,-21.3 -0.8,-0.4 -0.4,-1.1 -0.4,-1.1 -8.9,-28 -13.1,-56.2 -17.4,-85.5 -7.1,-57.9 -17.9,-127.2 15.5,-178.5 12,-33.1 34.8,-61.3 73.2,-75.4 z m -175.2,801.8 c 2.3,8 4.4,16.8 7.9,24.4 -18.2,28.8 -37.4,57 -56.8,86 3.2,44.1 -1.3,93.8 -19.4,134.2 -29,68.2 -91.5,112.6 -167.8,91.8 -72.1,-19.7 -125.2,-90.7 -135.7,-163.8 0,0 -1.1,-1.6 -0.7,-2.4 -0.4,-3 -1.8,-5.7 -2.1,-8.7 -5.7,-21.5 -10.9,-42.5 -11.6,-64.2 -4.2,-72.6 5.9,-150 66.5,-198.2 33.4,-26.4 76.8,-33.8 117,-22.8 28.2,8.5 52.6,23.6 73.2,44.3 20.9,17 36.7,39 48.8,64.8 z m -878.8,677.9 c -0.1,1.9 -2.1,5.7 -4.2,11.3 6.5,-12 12.9,-23.9 19.4,-35.8 20.5,-29.4 47.2,-44.9 80.7,-53.8 119.7,-30.9 283.2,-13.2 324.6,127.7 16.9,56.2 18.4,115.8 -16.5,166.4 -39.7,55.7 -95.5,70 -160.3,70.7 -52.3,0.7 -116.7,-11.8 -162.8,-38.6 -25.4,-15.6 -45.9,-36.4 -62.2,-61.4 1.8,1.9 4.1,3.2 5.9,5.1 -17.9,-20.3 -27.9,-41 -41.9,-63 -23.8,-38 -6.4,-63.3 2.6,-99.8 7.7,-16 12.2,-26.2 14.7,-28.8 z m -151.8,237.2 c 25.7,94.8 84.5,224.8 41,319.9 -28.3,61.8 -96.2,98.5 -159.8,57.5 -100.6,-66.8 -132.8,-214.3 -142.1,-329.1 -4.3,-56.2 -12.4,-135.8 25.2,-184 15.8,-20.4 29.9,-37.8 54.9,-46.6 5.3,-1 9.9,-2.3 13.6,-2.2 1.5,-1.1 2.4,-0.6 3.9,-1.9 1.1,-0.2 2.4,-0.6 3.5,-0.9 l 0.7,0.3 c 19.5,-5.7 36.8,-2.2 52,8.8 3.7,2.1 7.4,4 12.3,5.8 8.2,6.3 17,12.9 25.2,19.3 43.5,42.7 54.2,97.7 69.6,153.1 z m 846.8,-1762.8 2.9,16 -13.2,-2.4 c 3.6,-4.8 7.1,-9.5 10.3,-13.6 z m -674.4,935.6 c 1.3,-0.5 2.3,-0.9 4.3,-0.7 l 52.5,286.5 -277.8,20.9 c 73.8,-102.9 147.8,-204.7 221,-306.7 z m -719.8,993 20.3,2 37.1,191.7 -168.5,-42.7 c 37.7,-50.1 74.4,-100.5 111.1,-151 z m -549.9,742.2 c 21.3,10.6 50.7,25.5 86.3,41.7 72.3,35.2 169.5,81.7 267.7,128 95.3,44.5 190.5,89.1 262.5,123.1 -35.5,46.4 -71.8,92.3 -108.5,139.1 -34.5,-25.3 -68.6,-51.4 -101.8,-77 -191.5,-144.7 -364.3,-279.1 -423.3,-332.2 6,-7.4 11.9,-14.9 17.1,-22.7 z m -713.4,681.5 c 130.3,27.8 216.5,128.2 319.1,207.5 133.1,104.5 278.3,201.1 423.4,288.9 124.6,75.7 600,264.5 408.5,486 -37.4,42.5 -91,74.4 -149.1,53.6 -254.6,-89.9 -523.5,-278.2 -720.9,-459.7 -153.6,-141.6 -361.1,-291.9 -352.8,-521.6 1.3,-37.9 36.4,-62.2 71.8,-54.7 z m -95,360.2 c 86.5,80.3 178.3,161.6 272.9,241.4 66.3,57.1 135.2,113.4 203.6,166.6 -2051.5,2422.3 -4113.6,4708.8 -7947.6,7786.6 l -164.9,27.7 -168.9,27.6 c 989,-878.7 4449.7,-4048.9 7804.9,-8249.9"
       style="fill:#3a393a;fill-opacity:1;fill-rule:nonzero;stroke:none"
       transform="matrix(0.13333333,0,0,-0.13333333,0,4000)" />
    <path
       id="path50"
       d="m 27764.1,12121.3 c 4.3,29.3 8.5,57.5 17.4,85.5 0,0 -0.4,0.7 0.4,1.1 0.3,3.1 1.4,13.3 1.9,21.3 0.5,72.5 63.7,148 131.7,166.4 68.3,19.4 135.9,-20.2 158.8,-86 2.6,-6.3 4.2,-13.1 6.7,-19.5 4.4,-8.2 8,-16.9 11.5,-26.6 16.9,-45.8 20.9,-90.8 16.1,-138.7 -8.3,-86.4 -48,-202.2 -133.2,-240.3 -36,-22.4 -82,-31.8 -122.6,-17.1 -38.4,14.1 -61.2,42.3 -73.2,75.4 -33.4,51.3 -22.6,120.6 -15.5,178.5"
       style="fill:#747577;fill-opacity:1;fill-rule:nonzero;stroke:none"
       transform="matrix(0.13333333,0,0,-0.13333333,0,4000)" />
    <path
       id="path51"
       d="m 10690,8499.05 c -287.1,150.12 -615,146.12 -930.04,179.15 -133.38,13.96 -271.29,46.69 -405.7,24.43 -233.03,-38.59 -409.92,58.89 -617.39,142.01 -224.71,89.88 -259.6,-280.73 -40.32,-335.32 199.67,-49.77 401.5,-60.44 586.09,-160.59 147.85,-80.33 292.32,-112.45 457.83,-136.46 308.73,-44.84 702.63,-89.37 978.73,86.39 79.2,50.38 43.2,162.64 -29.2,200.39 v 0"
       style="fill:#969797;fill-opacity:1;fill-rule:nonzero;stroke:none"
       transform="matrix(0.13333333,0,0,-0.13333333,0,4000)" />
    <path
       id="path52"
       d="m 7129.94,8673.48 c -302.58,62.59 -588.86,193.73 -896.17,249.75 -345.68,63 -692.29,111.65 -1042.9,135.85 -345.89,23.81 -686.75,7.81 -1030.28,-37.45 -261.23,-34.37 -625.39,-118.41 -734.05,-390.01 -56.84,-142.31 52.12,-296.94 189.62,-337.26 261.03,-76.65 554.59,14.46 815.32,60.74 305.56,54.07 621.79,70.9 931.36,84.96 317.78,14.46 636.98,16.83 954.96,9.13 267.09,-6.57 551.52,42.89 815.63,5.74 139.24,-19.49 109.79,195.16 -3.49,218.55 v 0"
       style="fill:#969797;fill-opacity:1;fill-rule:nonzero;stroke:none"
       transform="matrix(0.13333333,0,0,-0.13333333,0,4000)" />
    <path
       id="path53"
       d="m 14071.8,6631.6 c 478.8,-218.04 967.2,-233.53 1486.4,-252.82 485.9,-18.16 996.5,-49.97 1383.8,-379.85 377.4,-321.57 820.7,167.46 437.9,486.36 -880.5,733.23 -2231.7,411.86 -3277.5,396.37 -146.9,-2.16 -149.9,-195.68 -30.6,-250.06 v 0"
       style="fill:#969797;fill-opacity:1;fill-rule:nonzero;stroke:none"
       transform="matrix(0.13333333,0,0,-0.13333333,0,4000)" />
    <path
       id="path54"
       d="m 14255.5,12514.6 c -77.3,85.9 -114.9,227.3 -197.6,322.1 -111.4,127.6 -230.2,241.7 -358.3,352.2 -236.5,203.7 -516.9,518.9 -858.7,453.4 -75.2,-14.3 -113.3,-88.6 -104.4,-159.7 40.7,-323.4 367.4,-507.9 599.4,-697.5 131,-107 262.9,-208.4 404.6,-301 123,-80.2 273.1,-93.6 389.1,-165.3 145.7,-90.2 218.4,92.9 125.9,195.8 v 0"
       style="fill:#969797;fill-opacity:1;fill-rule:nonzero;stroke:none"
       transform="matrix(0.13333333,0,0,-0.13333333,0,4000)" />
    <path
       id="path55"
       d="m 15323.6,12867.9 c -55.3,40.8 -99.9,109.5 -146.8,160.4 -59.3,64.4 -128.6,115.6 -198.1,168.1 -159.7,120.5 -320.7,243.9 -508.6,315 -224,84.8 -344.5,-183.7 -227,-349.1 119.4,-168.4 293.6,-276.8 463.2,-389.6 72.5,-48.1 168.4,-100.9 253,-122.8 79.6,-20.7 170.8,-21.3 247.4,-45.4 166.1,-52.3 246.3,167.8 116.9,263.4 v 0"
       style="fill:#969797;fill-opacity:1;fill-rule:nonzero;stroke:none"
       transform="matrix(0.13333333,0,0,-0.13333333,0,4000)" />
    <path
       id="path56"
       d="m 11726.6,13823.3 c -289,189.6 -520.5,357.3 -855.8,468.3 -336.9,111.5 -733.9,267.5 -1090.11,235 -297.05,-27.1 -186.74,-461.1 7.7,-547.9 282.11,-125.9 614.21,-121.3 919.41,-155 167.5,-18.5 334.4,-47.6 501,-74.2 158.4,-25.5 327.4,-17.6 476.6,-79 106,-43.7 112.2,106.3 41.2,152.8 v 0"
       style="fill:#969797;fill-opacity:1;fill-rule:nonzero;stroke:none"
       transform="matrix(0.13333333,0,0,-0.13333333,0,4000)" />
    <path
       id="path57"
       d="m 19140.8,17902.8 c -38.6,14.4 -77.1,28.8 -115.7,43.3 51.7,-46.6 103.5,-93.2 155.2,-139.8 -1,2.1 -1.9,4.1 -2.9,6.2 -55.1,115.1 -162.2,211.6 -296.5,214.5 -355.7,7.6 -1077,-13.7 -1134.1,-472.5 -10.3,-82.7 43.7,-165.8 114.7,-204.2 233.3,-126.2 447.3,-70.9 688,4.6 132.6,41.5 268.8,69 402.7,105.5 152.5,41.4 204.2,101.6 273.7,239.7 40,79.6 -24.3,160.1 -85.1,202.7 v 0"
       style="fill:#969797;fill-opacity:1;fill-rule:nonzero;stroke:none"
       transform="matrix(0.13333333,0,0,-0.13333333,0,4000)" />
    <path
       id="path58"
       d="m 16340.2,14882.7 c -5.7,-5.4 -11.2,-10.7 -16.9,-16 44.7,17.5 89.3,35 133.9,52.6 -200.6,2.7 -254.2,-195.9 -247.5,-359 6.8,-163.8 135.7,-342.5 277.8,-415.3 83.6,-42.8 184.1,-59.6 269.7,-10.9 106.5,60.7 127.4,191.8 84.9,298.5 -20.4,51.3 -51.4,93.6 -81.2,139 -11.7,17.8 -64.3,112.6 -26.6,35.5 -5.6,12.1 -10.2,24.6 -13.9,37.5 29.7,-90 -31.7,98.5 -16.7,59 -22.5,59.3 -45.6,108.3 -95.5,151.6 26.5,-47.9 53,-95.7 79.6,-143.5 -1.3,8.3 -2.7,16.6 -4,24.8 -24.6,151.3 -220.3,264.2 -343.6,146.2 v 0"
       style="fill:#969797;fill-opacity:1;fill-rule:nonzero;stroke:none"
       transform="matrix(0.13333333,0,0,-0.13333333,0,4000)" />
    <path
       id="path59"
       d="m 22965.9,10534.5 c 355.9,-10.2 724.7,364.1 943.7,618.8 -142,79.8 -284,159.6 -426,239.4 0,-18.4 0,-36.8 -0.1,-55.1 -0.3,-170.9 197.6,-395.9 381.6,-275.4 273.2,179 548,323.9 796,537.2 236.7,203.8 516,489.9 489.6,821.7 -7.3,91.4 -100.3,161.3 -186.2,167.7 -297.3,21.9 -594.1,-212 -808.3,-400 -253.9,-222.8 -437.6,-468.7 -627,-748.2 142.1,-79.8 284.2,-159.7 426.3,-239.5 -0.1,18.5 -0.1,36.8 -0.1,55.2 -0.3,187.2 -259.4,434.7 -426.1,239.4 -135.6,-158.8 -293.7,-286.4 -460.1,-411.6 -143.2,-107.7 -248.9,-198.4 -251.9,-383.9 -1.3,-83.3 60.5,-163.2 148.6,-165.7 v 0"
       style="fill:#969797;fill-opacity:1;fill-rule:nonzero;stroke:none"
       transform="matrix(0.13333333,0,0,-0.13333333,0,4000)" />
    <path
       id="path60"
       d="m 16012.4,10359.2 c -46.6,-313 -247.6,-554.68 -347.3,-847.82 -33,-96.76 85.2,-231.38 185.3,-166.84 336.6,217.32 390.5,612.87 352.3,983.36 -9.7,93.6 -173.2,145.9 -190.3,31.3 v 0"
       style="fill:#969797;fill-opacity:1;fill-rule:nonzero;stroke:none"
       transform="matrix(0.13333333,0,0,-0.13333333,0,4000)" />
    <path
       id="path61"
       d="m 1896.05,8250.54 c -1.54,-10.25 -3.08,-20.31 -4.51,-30.58 30.57,34.06 61.25,68.14 91.83,102.1 -107.43,-9.54 -172.07,-138.83 -181.1,-234.56 -15.09,-159.15 10.05,-294.59 127.95,-410.33 74.49,-73.06 240.31,-110.2 313.67,-12.52 80.24,106.81 67.11,218.76 43.61,342.71 -21.04,111.12 -79.01,247.5 -189.41,295.61 31.7,-44.22 63.4,-88.54 95.11,-132.67 -1.54,10.68 -2.97,21.34 -4.61,32.01 -19.91,140.58 -265.76,227.28 -292.54,48.23 v 0"
       style="fill:#fbc78d;fill-opacity:1;fill-rule:nonzero;stroke:none"
       transform="matrix(0.13333333,0,0,-0.13333333,0,4000)" />
    <path
       id="path62"
       d="m 25953.1,12892.6 c 21.9,-61.9 54,-119.1 87.4,-175.6 40.6,-68.2 103.4,-129.3 175.9,-146.9 62.2,-15.2 108.9,12.5 124.8,73.5 16.4,63 -22.1,140.1 -54.2,192.7 -26.4,43.1 -38.8,65.8 -57.7,119.2 -26.6,75.5 -117.8,130.1 -196.4,112.2 -82.9,-18.7 -105.2,-103.2 -79.8,-175.1 v 0"
       style="fill:#fbc78d;fill-opacity:1;fill-rule:nonzero;stroke:none"
       transform="matrix(0.13333333,0,0,-0.13333333,0,4000)" />
    <path
       id="path63"
       d="m 8350.25,13726.6 c 52.74,-2 107.02,11.6 143.95,51.8 -16.41,-9.5 -15.69,-9.1 2.36,1.2 27.4,15.8 43,36.6 62.6,58.9 48.53,55.6 108.14,111.5 135.74,181 59.83,150.7 -107.94,354.7 -271.39,303.5 -115.84,-36.3 -196.19,-126.4 -240.72,-237.5 -16.11,-40.1 -20.41,-73.9 -18.26,-117 0.72,19.7 0.31,18.4 -1.03,-4.3 -3.28,-31.7 1.23,-62.2 13.34,-91.6 25.55,-71.5 92.86,-143.1 173.41,-146 v 0"
       style="fill:#fbc88d;fill-opacity:1;fill-rule:nonzero;stroke:none"
       transform="matrix(0.13333333,0,0,-0.13333333,0,4000)" />
    <path
       id="path64"
       d="m 3188.7,25859.1 c 73.57,-300.8 66.9,-654.5 172.78,-1006.1 92.25,-309.3 261.14,-613.3 372.47,-950.6 104.25,-313.1 244.1,-624.5 360.97,-953.5 111.94,-315 207.88,-642.5 327.53,-965.4 116.96,-317.5 76.95,-697.3 198.64,-1015.7 122.62,-319.6 297.25,-618.5 420.39,-931.5 126.31,-323.3 228.4,-650.6 351.73,-958.2 131.23,-327 396.17,-588.7 519.29,-890.2 136.48,-335.8 94.61,-723.4 214.55,-1014.6 147.35,-355.3 334.1,-650.5 447.27,-919.4 42.48,-102.2 85.78,-196.6 128.26,-284.2 113.18,50.6 226.46,98.1 336.55,141.3 -2324.05,4848.5 -3673.13,9344.4 -4034,10617.6 l -48.74,-164.2 c 66.49,-207.4 167.56,-437.9 232.31,-705.3"
       style="fill:#c5c0be;fill-opacity:1;fill-rule:nonzero;stroke:none"
       transform="matrix(0.13333333,0,0,-0.13333333,0,4000)" />
    <path
       id="path65"
       d="m 6680.63,15865.8 c -249.75,-99.3 -536.64,-260 -728.62,-450.5 -44.02,-43.4 -38.69,-105.5 -16.72,-157.6 116.25,-268.8 493.53,77.9 616.15,157.3 142.31,92.6 292.64,181.6 444.91,256.4 116.15,58 244.31,92.1 326.19,197.5 22.16,28.6 15.49,71 -18.07,88.6 -203.36,107.1 -429.41,-14.7 -623.84,-91.7"
       style="fill:#747577;fill-opacity:1;fill-rule:nonzero;stroke:none"
       transform="matrix(0.13333333,0,0,-0.13333333,0,4000)" />
    <path
       id="path66"
       d="m 6127.05,17173.3 c -119.94,291.2 -78.07,678.8 -214.55,1014.6 -123.12,301.5 -388.06,563.2 -519.29,890.2 -123.33,307.6 -225.42,634.9 -351.73,958.2 -123.14,313 -297.77,611.9 -420.39,931.5 -121.69,318.4 -81.68,698.2 -198.64,1015.7 -119.65,322.9 -215.59,650.4 -327.53,965.4 -116.87,329 -256.72,640.4 -360.97,953.5 -111.33,337.3 -280.22,641.3 -372.47,950.6 -105.88,351.6 -99.21,705.3 -172.78,1006.1 -64.75,267.4 -165.82,497.9 -232.31,705.3 l -46.99,-160.8 c 1103.03,-4792.5 2265.26,-7644.1 3554.41,-10545.1 77.78,38.5 158.53,76.1 238.77,111.2 -42.48,87.6 -85.78,182 -128.26,284.2 -113.17,268.9 -299.92,564.1 -447.27,919.4"
       style="fill:#e9e9e9;fill-opacity:1;fill-rule:nonzero;stroke:none"
       transform="matrix(0.13333333,0,0,-0.13333333,0,4000)" />
    <path
       id="path67"
       d="m 8044.48,14094.7 10.66,17.2 c -29.54,55.1 -58.99,110.2 -87.83,165.8 l -111.73,-133.4 188.9,-49.6"
       style="fill:#747577;fill-opacity:1;fill-rule:nonzero;stroke:none"
       transform="matrix(0.13333333,0,0,-0.13333333,0,4000)" />
    <path
       id="path68"
       d="m 8635.08,13027.9 c 1.03,1.7 1.13,2.8 1.44,4.1 -60.23,110.3 -119.64,221.3 -180.18,332.5 l -102.19,-259.5 280.93,-77.1"
       style="fill:#747577;fill-opacity:1;fill-rule:nonzero;stroke:none"
       transform="matrix(0.13333333,0,0,-0.13333333,0,4000)" />
    <path
       id="path69"
       d="m 7015.12,14659.4 c 26.07,-53.4 51.72,-106.1 77.99,-158.2 62.07,50.2 143.85,116.7 225.52,183.2 84.45,68.6 168.69,135.9 231.9,185.9 30.16,25 56.43,45.1 75.21,59.7 -4.83,8.1 -8.93,16.6 -13.03,25.1 -73.47,-30.1 -269.96,-127.4 -483.69,-237.3 -37.66,-18.9 -76.04,-38.3 -113.9,-58.4"
       style="fill:#747577;fill-opacity:1;fill-rule:nonzero;stroke:none"
       transform="matrix(0.13333333,0,0,-0.13333333,0,4000)" />
    <path
       id="path70"
       d="m 8162.68,13557.2 c 3.7,3.7 7.08,6 10.57,8.6 16.52,8.8 27.29,23 30.58,43.1 l 0.61,0.4 c 0.11,1.2 0.42,2.5 0.62,3.7 -0.41,1.8 0.41,2.3 0,4.1 1.74,3.4 2.56,8.2 4,13.3 2.98,26.3 -6.57,46.7 -18.06,69.8 -27.09,54.8 -102.4,81.9 -154.94,102.5 -107.53,41.5 -254.46,76.5 -358.4,14.7 -64.75,-39.5 -61.26,-116.6 -17.96,-169.1 66.8,-80.4 209.63,-83.7 306.28,-101.7 56.75,-10.3 110.92,-24.4 168.28,-3.8 9.33,4.6 19.19,9.7 28.42,14.4"
       style="fill:#747577;fill-opacity:1;fill-rule:nonzero;stroke:none"
       transform="matrix(0.13333333,0,0,-0.13333333,0,4000)" />
    <path
       id="path71"
       d="m 7327.36,13910.4 c 101.37,22.1 166.12,77.3 219.47,164.2 13.96,22.7 33.86,48.6 53.77,81.9 20.11,31.4 25.96,67 32.22,102.9 19.49,122.1 -152.48,194.5 -247.29,152 -81.16,-36.8 -129.07,-82.1 -177.1,-154.5 -59,-87.8 -97.27,-179.5 -46.27,-270.3 29.86,-52.8 104.76,-89.6 165.2,-76.2"
       style="fill:#747577;fill-opacity:1;fill-rule:nonzero;stroke:none"
       transform="matrix(0.13333333,0,0,-0.13333333,0,4000)" />
    <path
       id="path72"
       d="m 9185.78,12017.9 c -2.36,4.7 -5.03,10 -7.9,15.1 l -7.8,-10.8 15.7,-4.3"
       style="fill:#e9e9e9;fill-opacity:1;fill-rule:nonzero;stroke:none"
       transform="matrix(0.13333333,0,0,-0.13333333,0,4000)" />
    <path
       id="path73"
       d="m 7028.16,14851.1 c 9.13,3.4 18.05,6.8 25.44,11 8.82,5.5 17.45,10.7 25.04,16.3 0.72,0.4 1.43,0.9 2.15,1.4 7.59,6.5 14.78,12.7 23.09,20 1.43,0.9 2.77,1.9 4.31,4.1 22.06,20.2 40.94,43.3 50.69,73.4 14.26,43.8 17.03,83.5 -6.06,125.4 -32.63,58.2 -94.3,86.8 -157.3,95.6 -78.9,12 -176.38,-16.7 -222.04,-85.4 -20.62,-23.4 -33.03,-51.2 -37.45,-82.7 -1.85,-23.4 1.02,-46.4 9.24,-67.8 3.07,-7 6.25,-14.2 10.05,-21 10.47,-14.4 20.93,-28.8 31.5,-42 32.94,-33.8 81.37,-57.4 128.26,-60 39.71,-2.7 75.01,-2.2 113.08,11.7"
       style="fill:#747577;fill-opacity:1;fill-rule:nonzero;stroke:none"
       transform="matrix(0.13333333,0,0,-0.13333333,0,4000)" />
    <path
       id="path74"
       d="m 8005.29,13378.1 c -25.97,-3.2 -49.06,-3 -75.12,-10.4 2.47,0.8 4.62,2.3 7.29,3.1 -29.86,-3.9 -57.56,-13.3 -82.6,-29.3 -44.22,-30.1 -83.52,-82.7 -105.79,-130.1 -27.6,-58.8 -38.99,-115.3 -6.05,-175.3 30.37,-53.3 84.65,-77.9 142.72,-87.2 144.99,-23.8 232.41,116 256.62,237.3 6.68,34.1 4.32,64.9 -13.34,96.2 -7.89,11 -15.8,22 -23.8,33 4.21,-4.3 6.77,-7.8 8.31,-8.6 -1.23,3.3 -8.41,11.7 -19.49,25.7 -29.04,24 -44.23,50.7 -88.75,45.6"
       style="fill:#747577;fill-opacity:1;fill-rule:nonzero;stroke:none"
       transform="matrix(0.13333333,0,0,-0.13333333,0,4000)" />
    <path
       id="path75"
       d="m 9054.75,11049.3 106.81,44.9 225.02,111.7 -474.35,57.6 c 53.25,-80.9 101.38,-152.9 142.52,-214.2"
       style="fill:#747577;fill-opacity:1;fill-rule:nonzero;stroke:none"
       transform="matrix(0.13333333,0,0,-0.13333333,0,4000)" />
    <path
       id="path76"
       d="m 7625.74,13454 53.05,81.4 -104.36,16.7 c 16.62,-33.1 34.38,-66.3 51.31,-98.1"
       style="fill:#e9e9e9;fill-opacity:1;fill-rule:nonzero;stroke:none"
       transform="matrix(0.13333333,0,0,-0.13333333,0,4000)" />
    <path
       id="path77"
       d="m 8266.21,12311.2 c -1.23,0.1 -1.74,0.8 -2.87,0.9 17.64,-30 34.78,-59.6 52.74,-88.4 8.41,-0.2 17.24,-2.3 25.44,-3.5 l 24.53,-6.4 23.81,72.7 c -42.69,-0.4 -87.12,10.4 -123.65,24.7"
       style="fill:#e9e9e9;fill-opacity:1;fill-rule:nonzero;stroke:none"
       transform="matrix(0.13333333,0,0,-0.13333333,0,4000)" />
    <path
       id="path78"
       d="m 8359.28,12628 c -2.88,1 -5.85,1 -8.72,2 -0.62,0.6 -2.47,0.3 -2.47,0.3 -70.48,22.3 -157.6,5.2 -206.75,-51.4 -52.13,-59.7 -39.3,-135.2 9.54,-191 28.63,-33.8 71.31,-59.3 112.46,-75.8 1.13,-0.1 1.64,-0.8 2.87,-0.9 36.53,-14.3 80.96,-25.1 123.65,-24.7 28.52,-0.2 55.3,4.5 79.62,15.9 27.7,9.5 52.02,25.1 71.82,46.8 27.6,31.5 39.81,73.9 30.68,115.4 -17.14,75.6 -82.6,118.2 -149.81,145.9 -19.9,8.8 -41.04,13.4 -62.89,17.5"
       style="fill:#747577;fill-opacity:1;fill-rule:nonzero;stroke:none"
       transform="matrix(0.13333333,0,0,-0.13333333,0,4000)" />
    <path
       id="path79"
       d="m 3058.48,27264.9 c -47.09,1.5 -89.77,-29.5 -103.01,-74.7 l -210.96,-704.9 c -5.23,-17.4 -6.26,-36 -1.85,-53.7 1087.13,-4838.7 2242.07,-7712.3 3526.41,-10639.9 -237.03,-129.8 -442.86,-273.6 -572.04,-424.8 -40.33,-47.1 -71.82,-84.6 238.77,-475.6 l 36.83,-46.6 56.03,19.7 c 229.84,77.5 486.66,160.9 572.45,184.3 18.77,-41.9 38.16,-84.5 57.66,-125.8 33.96,-72.9 67.41,-145 100.96,-216 l 28.53,-84.1 c 6.46,-16.2 16.41,-29.9 30.68,-39.5 32.94,-71.6 66.69,-141.3 100.45,-211.1 -19.7,-47.9 -15.8,-103.8 12.52,-150.2 8.62,-14.7 40.73,-64.8 90.29,-123.2 l 115.54,-360.4 c 18.88,-60.7 70.69,-104.9 132.77,-115.4 l 25.65,-3.4 c 45.87,-89.3 91.43,-176.7 136.16,-261.7 1.85,-41.6 3.18,-82.5 4.62,-123.4 4.21,-46.3 8.93,-92 13.24,-137 l 832.96,-1406.7 c 12.62,-0.4 25.96,-1.2 38.69,-1.5 l 190.33,-298.8 c 22.37,-35.1 56.02,-60 94.81,-71.6 105.07,-163.8 193.52,-298.8 262.78,-401.6 11.18,-16.9 18.67,-27.3 21.95,-33.2 5.85,-9.5 11.81,-17.7 19.6,-25.7 31.3,-28.7 75.63,-36.3 114,-20 l 189.51,79.7 c 2.06,1.5 3.9,1.8 5.24,2.7 l 512.31,248.7 c 13.34,6.4 25.14,16 34.18,26.8 8.92,10.7 14.98,22.4 19.59,35.1 3.28,9.7 4.62,18.1 5.03,27.8 0.1,1.1 0.82,1.6 1.44,2 35.5,54 36.42,125 1.95,179.6 l -276.43,455.4 c 0,0 0,0 -0.62,0.7 15.19,3.6 29.86,7.9 45.05,11.6 -718.04,950.5 -1191.07,2024 -1645.1,3106.2 -28.01,-7.7 -56.02,-15.5 -83.63,-25.1 -1.12,0.3 -2.15,1.7 -2.66,2.3 -10.16,19.9 -19.91,39.1 -30.07,58.9 -64.95,125.8 -128.98,253.3 -192.07,379.4 -10.17,19.8 -19.2,39.5 -29.45,59.3 l 662.32,301.8 -209.01,673 -77.98,-20.9 c -29.86,-7.9 -338.09,-93 -723.48,-231.9 -2702.26,5705.9 -4059.35,10919.9 -4073.71,10974.4 -10.98,45.5 -51.82,78.8 -99.23,79 z m 4149.95,-13008 c 48.03,72.4 95.94,117.7 177.1,154.5 94.81,42.5 266.78,-29.9 247.29,-152 -6.26,-35.9 -12.11,-71.5 -32.22,-102.9 -19.91,-33.3 -39.81,-59.2 -53.77,-81.9 -53.35,-86.9 -118.1,-142.1 -219.47,-164.2 -60.44,-13.4 -135.34,23.4 -165.2,76.2 -51,90.8 -12.73,182.5 46.27,270.3 z m -453.11,684.5 c -3.8,6.8 -6.98,14 -10.05,21 -8.22,21.4 -11.09,44.4 -9.24,67.8 4.42,31.5 16.83,59.3 37.45,82.7 45.66,68.7 143.14,97.4 222.04,85.4 63,-8.8 124.67,-37.4 157.3,-95.6 23.09,-41.9 20.32,-81.6 6.06,-125.4 -9.75,-30.1 -28.63,-53.2 -50.69,-73.4 -1.54,-2.2 -2.88,-3.2 -4.31,-4.1 -8.31,-7.3 -15.5,-13.5 -23.09,-20 -0.72,-0.5 -1.43,-1 -2.15,-1.4 -7.59,-5.6 -16.22,-10.8 -25.04,-16.3 -7.39,-4.2 -16.31,-7.6 -25.44,-11 -38.07,-13.9 -73.37,-14.4 -113.08,-11.7 -46.89,2.6 -95.32,26.2 -128.26,60 -10.57,13.2 -21.03,27.6 -31.5,42 z m 923.47,-1406 -53.05,-81.4 c -16.93,31.8 -34.69,65 -51.31,98.1 z m 1482.77,-2441.2 -106.81,-44.9 c -41.14,61.3 -89.27,133.3 -142.52,214.2 l 474.35,-57.6 z m -173.71,620 c -4.41,-42.9 -32.94,-80.4 -68.75,-103.3 -71.52,-60.1 -193.1,-45.6 -274.67,-15.6 -45.36,16.5 -84.14,39.6 -118,74.7 -7.29,7.3 -13.45,14.4 -18.99,22 -4.62,4.9 -10.06,9.4 -14.67,14.3 -49.25,49.3 -55.51,127.5 -8.21,180.6 46.17,53.4 141.7,77.6 207.27,46.4 7.38,-2.9 17.13,-6.3 20.01,-7.4 0.71,0.5 1.23,-0.2 1.23,-0.2 29.14,-4.1 56.32,-12.6 84.64,-21.3 55.31,-18.7 122.52,-39.1 154.22,-91.5 24.53,-25.3 40.02,-58 35.92,-98.7 z m -646.33,506 c -8.2,1.2 -17.03,3.3 -25.44,3.5 -17.96,28.8 -35.1,58.4 -52.74,88.4 -41.15,16.5 -83.83,42 -112.46,75.8 -48.84,55.8 -61.67,131.3 -9.54,191 49.15,56.6 136.27,73.7 206.75,51.4 0,0 1.85,0.3 2.47,-0.3 2.87,-1 5.84,-1 8.72,-2 21.85,-4.1 42.99,-8.7 62.89,-17.5 67.21,-27.7 132.67,-70.3 149.81,-145.9 9.13,-41.5 -3.08,-83.9 -30.68,-115.4 -19.8,-21.7 -44.12,-37.3 -71.82,-46.8 -24.32,-11.4 -51.1,-16.1 -79.62,-15.9 z m -227.99,1086.6 c -1.54,0.8 -4.1,4.3 -8.31,8.6 8,-11 15.91,-22 23.8,-33 17.66,-31.3 20.02,-62.1 13.34,-96.2 -24.21,-121.3 -111.63,-261.1 -256.62,-237.3 -58.07,9.3 -112.35,33.9 -142.72,87.2 -32.94,60 -21.55,116.5 6.05,175.3 22.27,47.4 61.57,100 105.79,130.1 25.04,16 52.74,25.4 82.6,29.3 -2.67,-0.8 -4.82,-2.3 -7.29,-3.1 26.06,7.4 49.15,7.2 75.12,10.4 44.52,5.1 59.71,-21.6 88.75,-45.6 11.08,-14 18.26,-22.4 19.49,-25.7 z m -147.55,239.8 c -96.65,18 -239.48,21.3 -306.28,101.7 -43.3,52.5 -46.79,129.6 17.96,169.1 103.94,61.8 250.87,26.8 358.4,-14.7 52.54,-20.6 127.85,-47.7 154.94,-102.5 11.49,-23.1 21.04,-43.5 18.06,-69.8 -1.44,-5.1 -2.26,-9.9 -4,-13.3 0.41,-1.8 -0.41,-2.3 0,-4.1 -0.2,-1.2 -0.51,-2.5 -0.62,-3.7 l -0.61,-0.4 c -3.29,-20.1 -14.06,-34.3 -30.58,-43.1 -3.49,-2.6 -6.87,-4.9 -10.57,-8.6 -9.23,-4.7 -19.09,-9.8 -28.42,-14.4 -57.36,-20.6 -111.53,-6.5 -168.28,3.8 z m 1219.8,-1528.7 -15.7,4.3 7.8,10.8 c 2.87,-5.1 5.54,-10.4 7.9,-15.1 z M 8636.52,13032 c -0.31,-1.3 -0.41,-2.4 -1.44,-4.1 l -280.93,77.1 102.19,259.5 c 60.54,-111.2 119.95,-222.2 180.18,-332.5 z m -581.38,1079.9 -10.66,-17.2 -188.9,49.6 111.73,133.4 c 28.84,-55.6 58.29,-110.7 87.83,-165.8 z m -429.4,818.1 c -18.78,-14.6 -45.05,-34.7 -75.21,-59.7 -63.21,-50 -147.45,-117.3 -231.9,-185.9 -81.67,-66.5 -163.45,-133 -225.52,-183.2 -26.27,52.1 -51.92,104.8 -77.99,158.2 37.86,20.1 76.24,39.5 113.9,58.4 213.73,109.9 410.22,207.2 483.69,237.3 4.1,-8.5 8.2,-17 13.03,-25.1 z m -303.2,938.9 c -81.88,-105.4 -210.04,-139.5 -326.19,-197.5 -152.27,-74.8 -302.6,-163.8 -444.91,-256.4 -122.62,-79.4 -499.9,-426.1 -616.15,-157.3 -21.97,52.1 -27.3,114.2 16.72,157.6 191.98,190.5 478.87,351.2 728.62,450.5 194.43,77 420.48,198.8 623.84,91.7 33.56,-17.6 40.23,-60 18.07,-88.6 z m -283.41,242.1 c -110.09,-43.2 -223.37,-90.7 -336.55,-141.3 -80.24,-35.1 -160.99,-72.7 -238.77,-111.2 -1289.15,2901 -2451.38,5752.6 -3554.41,10545.1 l 46.99,160.8 48.74,164.2 C 3366,25455.4 4715.08,20959.5 7039.13,16111"
       style="fill:#3a393a;fill-opacity:1;fill-rule:nonzero;stroke:none"
       transform="matrix(0.13333333,0,0,-0.13333333,0,4000)" />
    <path
       id="path80"
       d="m 8797.71,11904.4 c -28.32,8.7 -55.5,17.2 -84.64,21.3 0,0 -0.52,0.7 -1.23,0.2 -2.88,1.1 -12.63,4.5 -20.01,7.4 -65.57,31.2 -161.1,7 -207.27,-46.4 -47.3,-53.1 -41.04,-131.3 8.21,-180.6 4.61,-4.9 10.05,-9.4 14.67,-14.3 5.54,-7.6 11.7,-14.7 18.99,-22 33.86,-35.1 72.64,-58.2 118,-74.7 81.57,-30 203.15,-44.5 274.67,15.6 35.81,22.9 64.34,60.4 68.75,103.3 4.1,40.7 -11.39,73.4 -35.92,98.7 -31.7,52.4 -98.91,72.8 -154.22,91.5"
       style="fill:#747577;fill-opacity:1;fill-rule:nonzero;stroke:none"
       transform="matrix(0.13333333,0,0,-0.13333333,0,4000)" />
    <path
       id="path81"
       d="m 20621.1,10508.6 c 65.9,58.6 138.4,94.8 218.8,129.7 90.7,39.3 193.3,67.2 264,138.6 93.7,94.4 -29.9,273.1 -146.8,264.6 -221.8,-16.1 -373.4,-220.2 -514.7,-372 -91.2,-98 82,-246.8 178.7,-160.9 v 0"
       style="fill:#747577;fill-opacity:1;fill-rule:nonzero;stroke:none"
       transform="matrix(0.13333333,0,0,-0.13333333,0,4000)" />
    <path
       id="path82"
       d="m 15081.2,3261.48 c 329.2,10.15 651.6,32.72 976.3,92.75 311.7,57.66 689.3,55.71 940.2,266.47 91,76.44 6,237.64 -78,277.66 -284.5,135.64 -573.9,75.62 -872.3,11.07 -359.4,-77.77 -710.1,-199.05 -1071.7,-264.31 -234.2,-42.28 -87.1,-389.6 105.5,-383.64 v 0"
       style="fill:#747577;fill-opacity:1;fill-rule:nonzero;stroke:none"
       transform="matrix(0.13333333,0,0,-0.13333333,0,4000)" />
    <path
       id="path83"
       d="m 16432.4,4136.82 c 362.1,55.82 733.1,41.45 1055.4,232.09 102.5,60.64 34.9,222.05 -66.7,240.93 -391.5,72.85 -756.1,-2.88 -1137.3,-107.54 -246.3,-67.62 -58.4,-397.4 148.6,-365.48 v 0"
       style="fill:#747577;fill-opacity:1;fill-rule:nonzero;stroke:none"
       transform="matrix(0.13333333,0,0,-0.13333333,0,4000)" />
    <path
       id="path84"
       d="m 5132.48,7079.8 c 266.27,-157.61 544.23,-252.83 843.23,-330.2 291.4,-75.31 614.62,-140.56 911.98,-79 135.54,28.11 79.72,193.72 -3.49,244.92 -480.2,295 -1149.61,265.54 -1689.94,393.7 -160.99,38.17 -180.8,-158.83 -61.78,-229.42 v 0"
       style="fill:#747577;fill-opacity:1;fill-rule:nonzero;stroke:none"
       transform="matrix(0.13333333,0,0,-0.13333333,0,4000)" />
    <path
       id="path85"
       d="m 6591.15,7220.47 c 389.7,-124.87 807.52,-221.22 1217.33,-229.74 141.5,-2.88 126.72,174.64 27.81,228.31 -373.8,203.05 -801.57,238.55 -1199.99,377.17 -264.11,91.84 -276.32,-301.66 -45.15,-375.74 v 0"
       style="fill:#747577;fill-opacity:1;fill-rule:nonzero;stroke:none"
       transform="matrix(0.13333333,0,0,-0.13333333,0,4000)" />
    <path
       id="path86"
       d="m 20611.4,13100 c -439,-92.1 -902.4,20.5 -1344.7,37.1 -226.5,8.4 -453.2,3.8 -679.7,13.2 -186.8,7.8 -366.6,45.3 -539.6,-37.2 -96.5,-46 -59.4,-180 2.3,-236 317.6,-287.8 886.2,-190.4 1279.3,-167.1 467.4,27.7 927.2,14.5 1380.5,148.5 159.4,47.2 40.2,270.4 -98.1,241.5 v 0"
       style="fill:#747577;fill-opacity:1;fill-rule:nonzero;stroke:none"
       transform="matrix(0.13333333,0,0,-0.13333333,0,4000)" />
    <path
       id="path87"
       d="m 19408.6,12513.1 c -539.7,172.6 -1077.3,474.4 -1655.1,495.7 -132.5,5 -157.3,-162.4 -65.1,-234.7 487.1,-382.1 1117.8,-376.8 1686.6,-542.2 203.8,-59.3 204.7,226.6 33.6,281.2 v 0"
       style="fill:#747577;fill-opacity:1;fill-rule:nonzero;stroke:none"
       transform="matrix(0.13333333,0,0,-0.13333333,0,4000)" />
  </g>
</svg>
